<svg width="45" height="31" viewBox="0 0 45 31" fill="none" xmlns="http://www.w3.org/2000/svg">
<path d="M45 1.54472V29.2535C45 30.0425 44.3514 30.6911 43.5624 30.6911H1.43754C0.648545 30.6911 0 30.0425 0 29.2535V1.54472C0 0.755723 0.648545 0.11377 1.43754 0.11377H43.5624C44.3514 0.11377 45 0.755723 45 1.54472Z" fill="url(#paint0_linear_240_1537)"/>
<g opacity="0.2">
<path d="M26.312 9.19044C26.2147 9.08102 26.154 8.98381 26.0325 9.03848C25.9109 9.09314 25.9109 9.17216 25.7832 9.07495C25.6556 8.97774 25.7103 8.86217 25.4245 8.7589C25.1388 8.65554 25.0781 8.5948 24.768 8.55226C24.458 8.50973 24.2331 8.46719 24.2148 8.46719C24.1966 8.46719 24.2817 8.52185 24.1601 8.58268C24.0386 8.6435 23.9413 8.65562 23.8197 8.57661C23.6982 8.4976 23.7042 8.47325 23.4976 8.49153C23.2909 8.50981 23.1693 8.55842 23.0782 8.57055C22.9871 8.58267 23.0782 8.56448 22.9384 8.46719C22.7985 8.36989 22.8958 8.31522 22.6526 8.33342C22.4095 8.3517 22.3062 8.36295 22.2453 8.3299C22.1845 8.29694 22.2575 8.1267 22.0204 8.05375C21.7834 7.9808 21.7347 8.03556 21.6131 8.01727C21.4916 7.99908 21.4977 7.96867 21.1512 7.94433C20.8047 7.91998 20.8229 7.97474 20.5859 8.04768C20.3488 8.12063 20.288 8.12063 20.0692 8.1085C19.8503 8.09638 19.9051 8.23006 19.7713 8.24834C19.6375 8.26653 19.4248 8.13285 19.4005 8.05384C19.3762 7.97482 19.5829 7.88974 19.4005 7.8168C19.2181 7.74385 18.8777 7.60401 18.8108 7.62836C18.744 7.6527 18.7804 7.76213 18.6589 7.79245C18.5373 7.82286 18.3793 7.82286 18.1909 7.73778C18.0024 7.6527 17.9295 7.6106 17.7289 7.62555C17.5283 7.64049 17.4189 7.70131 17.2487 7.71344C17.0784 7.72557 16.9752 7.65262 17.0906 7.59795C17.2061 7.54328 17.352 7.3791 17.352 7.30009C17.352 7.22107 17.4371 7.05083 17.2426 7.03264C17.0481 7.01444 17.0116 7.14812 16.8293 7.03264C16.6469 6.91715 16.4098 6.91108 16.343 6.94756C16.2761 6.98403 16.2761 7.04485 16.1606 7.06305C16.0451 7.08124 16.0876 7.1846 15.9478 7.22107C15.808 7.25755 15.8263 7.14812 15.504 7.17853C15.1818 7.20894 14.8718 7.25148 14.7928 7.34263C14.7138 7.43377 14.8111 7.53713 14.6409 7.61614C14.4706 7.69516 14.0816 7.63434 14.033 7.70122C13.9844 7.7681 14.2458 7.99908 14.0695 8.10244C13.8932 8.2058 13.7838 8.02949 13.3766 8.10244C12.9693 8.17539 13.0179 8.16326 12.866 8.2544C12.714 8.34555 12.6836 8.28481 12.5925 8.41243C12.5013 8.54005 12.2277 8.65562 12.0393 8.65562C11.8509 8.65562 11.7719 8.54014 11.5287 8.63743C11.2856 8.73473 11.322 8.80152 10.939 8.7712C10.5561 8.74079 10.398 8.74685 10.3251 8.79555C10.2521 8.84415 10.2521 8.96579 10.0637 9.02046C9.87527 9.07513 9.58347 9.17242 9.51052 9.15423C9.43757 9.13603 9.1884 9.25759 9.01816 9.27578C8.84791 9.29406 8.75071 9.28185 8.69604 9.21496C8.64128 9.14808 8.58055 9.03259 8.66563 9.06906C8.75071 9.10554 8.82365 9.15414 8.97562 9.14808C9.12758 9.14201 9.29782 9.02046 9.26135 8.95357C9.22488 8.88669 9.25529 8.78948 8.95742 8.71653C8.65956 8.64358 8.53195 8.65571 8.30703 8.49162C8.08212 8.32753 8.39211 8.2181 7.80254 8.27884C7.21288 8.33966 7.05486 8.40039 6.81781 8.5767C6.58077 8.75301 6.53208 8.90497 6.28898 9.11767C6.04587 9.33045 6.13095 9.39118 5.82702 9.54314C5.5231 9.69511 5.47449 9.62216 5.38326 9.85313C5.29203 10.0841 5.2313 10.3516 5.41974 10.4003C5.60818 10.4489 5.80268 10.3638 5.89997 10.3273C5.99727 10.2908 6.07022 10.3577 6.08235 10.4671C6.09447 10.5766 6.10054 10.7589 6.22218 10.7832C6.34373 10.8075 6.59905 10.6373 6.58693 10.4611C6.5748 10.2848 6.53226 10.1632 6.65381 9.9869C6.77536 9.8106 6.85438 9.68298 6.98208 9.62216C7.1097 9.56134 7.28601 9.452 7.21912 9.59175C7.15224 9.73158 7.03069 9.89567 7.11576 10.0355C7.20084 10.1753 7.39534 10.078 7.44404 10.2179C7.49264 10.3577 7.37715 10.4914 7.34674 10.5401C7.31633 10.5887 7.41969 10.6495 7.27986 10.7468C7.14002 10.844 7.04888 10.9474 6.89692 11.0629C6.74495 11.1783 6.29513 11.2574 6.19177 11.2331C6.08841 11.2088 5.91825 11.2331 5.90604 11.0933C5.89391 10.9534 6.058 10.8015 5.88784 10.7346C5.7176 10.6677 5.52916 10.7589 5.47449 10.996C5.41974 11.233 5.33466 11.2756 5.19491 11.391C5.05508 11.5065 5.17057 11.8591 4.76337 11.9259C4.35609 11.9928 4.12511 11.8955 4.15552 12.0414C4.18593 12.1873 4.44125 12.0961 4.44732 12.3393C4.45338 12.5824 4.5142 12.6676 4.33789 12.7162C4.16158 12.7648 4.11904 12.6736 3.882 12.7526C3.64496 12.8317 3.65709 13.1295 3.60849 13.2571C3.55988 13.3848 3.53554 13.5002 3.69357 13.555C3.85159 13.6097 4.10692 13.707 4.29535 13.6279C4.48379 13.5489 4.59321 13.5368 4.61756 13.3909C4.64191 13.245 4.70264 13.1539 4.83034 13.1295C4.95796 13.1052 5.04313 12.9593 5.11599 12.8742C5.18894 12.7891 5.11599 12.8195 5.30443 12.8256C5.49286 12.8317 5.66917 12.6311 5.73597 12.6858C5.80285 12.7404 6.00342 12.856 6.13104 12.9776C6.25865 13.0991 6.43496 13.1356 6.40455 13.318C6.37414 13.5003 6.36201 13.7118 6.48357 13.6577C6.60512 13.6037 6.56258 13.4395 6.64159 13.3605C6.72061 13.2815 6.82397 13.3544 6.81184 13.2146C6.79971 13.0748 6.59299 13.0383 6.48357 12.9107C6.37414 12.7831 6.28906 12.6432 6.42275 12.6858C6.55643 12.7283 6.81175 12.8438 6.8361 12.9411C6.86044 13.0384 7.08535 13.2389 7.10961 13.4274C7.13396 13.6158 7.26764 13.7861 7.32846 13.6888C7.38928 13.5915 7.33452 13.5185 7.46829 13.4943C7.60197 13.4699 7.55337 13.3727 7.62632 13.245C7.69927 13.1174 7.89984 13.3058 7.97278 13.0687C8.04573 12.8317 7.88164 12.75 8.06393 12.6206C8.2463 12.4913 8.32531 12.4062 8.37998 12.5217C8.43465 12.6372 8.57448 12.7587 8.64137 12.6372C8.70825 12.5156 8.51982 12.4791 8.67784 12.3879C8.83587 12.2968 8.97571 12.1873 8.93317 12.3454C8.89063 12.5034 8.82981 12.6067 8.93923 12.7162C9.04865 12.8256 9.37077 12.8925 9.19455 12.9897C9.01824 13.087 8.76301 13.0322 8.52588 13.1356C8.28884 13.2389 8.25237 13.1903 8.19155 13.3848C8.13072 13.5793 8.12466 13.6402 8.32523 13.6402C8.52579 13.6402 8.61702 13.5003 8.67169 13.6766C8.72636 13.8529 8.71423 14.248 8.62915 14.2845C8.54407 14.321 8.5076 14.2663 8.13072 14.3088C7.75385 14.3514 7.77204 14.4426 7.46812 14.2906C7.16419 14.1386 7.09124 13.9502 6.98182 14.1386C6.8724 14.327 6.95141 14.4229 6.71437 14.375C6.47733 14.327 6.64748 14.2238 6.33143 14.1447C6.01537 14.0657 5.95455 14.0901 5.95455 13.9502C5.95455 13.8104 5.99709 13.628 5.74783 13.6098C5.49858 13.5917 5.06097 13.6949 4.70229 13.7983C4.34361 13.9016 4.41655 13.7739 4.00321 13.9198C3.58986 14.0657 3.33453 14.1143 3.29199 14.3392C3.24946 14.5642 3.10962 14.6918 3.01848 14.8134C2.92734 14.935 2.87864 15.47 2.85439 15.7981C2.83004 16.1264 2.91521 15.9745 2.82398 16.2176C2.73275 16.4608 2.98807 16.8437 3.09143 16.947C3.19479 17.0503 3.52912 17.3785 3.74182 17.4029C3.9546 17.4272 3.93632 17.3238 4.26459 17.3724C4.59286 17.421 4.5868 17.2326 4.92113 17.3178C5.25547 17.4029 5.37702 17.4637 5.57153 17.567C5.76603 17.6704 5.78431 17.7555 5.78431 18.0047C5.78431 18.254 5.79644 18.0655 5.97275 18.4181C6.14905 18.7706 6.45904 19.0989 6.27667 19.4028C6.0943 19.7067 6.01529 19.7614 6.13077 20.0471C6.24626 20.3329 6.56847 20.9103 6.60494 21.2021C6.64142 21.4939 6.55028 21.5121 6.58675 21.6884C6.62322 21.8647 6.9515 22.0592 7.24936 21.9377C7.54722 21.8161 7.63836 21.81 7.88156 21.5851C8.12466 21.3602 8.36785 21.5305 8.55023 21.0624C8.7326 20.5943 8.67178 20.5396 8.75079 20.3511C8.82981 20.1627 9.30398 19.8892 9.32217 19.5488C9.34036 19.2084 9.21881 18.9531 9.26135 18.6249C9.30389 18.2966 9.3343 18.011 9.65035 17.7496C9.96641 17.4882 10.0394 17.7435 10.2582 17.2512C10.4771 16.7588 10.7384 16.6372 10.4952 16.6433C10.2521 16.6494 9.77797 16.8439 9.5774 16.7344C9.37684 16.625 9.04857 16.1266 8.98168 15.8956C8.9148 15.6646 8.93914 15.7801 8.82365 15.4519C8.70817 15.1236 8.59874 14.9534 8.55014 14.8257C8.50154 14.6981 8.47113 14.4732 8.61702 14.6556C8.76292 14.8379 8.90276 15.1115 9.09726 15.5309C9.29176 15.9503 9.40725 16.2725 9.57749 16.3394C9.74774 16.4063 9.8024 16.4853 10.0577 16.3819C10.313 16.2786 10.4042 16.2664 10.6474 16.1327C10.8905 15.9989 11.0364 15.9746 11.2127 15.7983C11.389 15.622 11.7901 15.5491 11.3465 15.3789C10.9027 15.2087 10.7507 15.306 10.6231 15.1115C10.4955 14.917 10.2888 14.7225 10.4772 14.7529C10.6657 14.7833 10.5927 14.8379 10.8055 14.8805C11.0183 14.923 11.1702 14.8272 11.2857 14.9815C11.4012 15.1358 11.5957 15.2452 11.7781 15.1601C11.9605 15.075 12.0334 15.0264 12.2279 15.1357C12.4224 15.2451 12.2948 15.5551 12.5866 15.6402C12.8784 15.7253 12.927 15.4092 12.9878 15.8104C13.0486 16.2117 13.1641 16.5824 13.2674 16.6615C13.3708 16.7405 13.2127 17.1053 13.5409 17.008C13.8692 16.9107 13.9664 16.9229 13.9664 16.5825C13.9664 16.2421 13.9543 16.157 14.1305 16.0354C14.3068 15.9138 14.5499 15.7923 14.6593 15.6646C14.7688 15.5369 14.7019 15.4578 14.9207 15.4822C15.1396 15.5065 15.6805 16.1144 15.6562 16.242C15.6318 16.3696 15.6076 16.4183 15.7109 16.4973C15.8142 16.5763 15.8081 16.6007 15.8872 16.8863C15.9662 17.1721 15.948 17.1294 16.1971 17.397C16.4464 17.6644 16.7989 17.8529 16.7685 17.6583C16.7381 17.4638 16.6166 17.4881 16.5071 17.1781C16.3977 16.8681 16.2701 16.5885 16.416 16.6676C16.5619 16.7466 16.5194 16.8621 16.6713 16.8864C16.8233 16.9108 16.8476 16.7344 16.9631 16.6797C17.0786 16.625 17.2853 16.1813 17.1211 15.9868C16.9571 15.7923 16.7868 15.6585 16.9571 15.5978C17.1273 15.5369 17.0482 15.5796 17.2488 15.6159C17.4494 15.6524 17.3887 15.5551 17.6318 15.4883C17.8749 15.4214 18.2275 15.312 18.4159 15.0689C18.6044 14.8258 18.811 14.7529 18.7563 14.4307C18.7017 14.1085 18.6287 13.9687 18.5132 13.8835C18.3978 13.7985 18.3917 13.7376 18.495 13.7012C18.5983 13.6647 18.8658 13.6586 18.7138 13.5796C18.5618 13.5006 18.6348 13.5431 18.4585 13.5006C18.2822 13.4581 18.0937 13.5431 18.2518 13.3972C18.4098 13.2513 18.5313 13.1298 18.5313 13.1298C18.5313 13.1298 18.4888 13.1602 18.5922 13.2696C18.6955 13.379 18.7624 13.3304 18.811 13.3061C18.8596 13.2817 19.0055 13.1785 19.0238 13.294C19.0421 13.4095 18.8354 13.4945 18.9569 13.5371C19.0785 13.5796 19.1879 13.4702 19.1393 13.689C19.0907 13.9079 19.1879 14.1084 19.2913 13.999C19.3946 13.8896 19.5466 13.5675 19.5162 13.4337C19.4858 13.3 19.3824 13.3668 19.5222 13.1237C19.6621 12.8806 19.6621 12.7104 19.8505 12.7408C20.0389 12.7712 20.2213 12.5888 20.2943 12.5159C20.3672 12.4429 20.6772 12.2727 20.7258 12.066C20.7744 11.8593 20.7501 11.829 20.8169 11.5919C20.8838 11.3548 21.0297 11.3548 20.8474 11.2454C20.665 11.136 20.5251 11.1603 20.4948 11.0387C20.4644 10.9171 20.9811 10.3275 21.206 10.2363C21.4309 10.1452 21.589 10.1877 21.7409 10.2545C21.8929 10.3214 21.9415 10.3882 22.0813 10.3031C22.2212 10.2181 22.3123 10.1694 22.3913 10.1633C22.4703 10.1572 22.6892 9.99306 22.7803 10.066C22.8715 10.139 22.8837 10.218 22.9931 10.1694C23.1025 10.1208 23.2484 9.86544 23.297 9.95658C23.3456 10.0477 23.3335 10.1571 23.1997 10.3335C23.066 10.5098 22.9505 10.5402 22.7803 10.6799C22.6101 10.8198 22.5433 10.9657 22.5433 11.0933C22.5433 11.2209 22.4947 11.6465 22.5615 11.6525C22.6284 11.6586 22.6466 11.6404 22.8229 11.4155C22.9992 11.1906 23.0903 11.1784 23.2058 11.0933C23.3213 11.0082 23.3638 10.9048 23.3821 10.7043C23.4004 10.5037 23.2727 10.455 23.4611 10.3517C23.6496 10.2484 23.8745 10.139 24.0629 10.1694C24.2514 10.1998 24.2088 10.1937 24.3487 10.0539C24.4885 9.91404 24.5857 9.8229 24.7316 9.83503C24.8775 9.84716 25.1145 9.87757 25.151 9.80462C25.1875 9.73167 25.1571 9.67094 25.1631 9.56758C25.1692 9.46422 25.1571 9.42168 25.2969 9.3852C25.4367 9.34873 25.4306 9.30013 25.4975 9.27578C25.5644 9.25144 25.6069 9.32438 25.7163 9.36692C25.8257 9.40946 26.0932 9.41553 26.154 9.33651C26.2148 9.25732 26.312 9.19044 26.312 9.19044Z" fill="#9FA6A9"/>
<path d="M20.975 12.4972C21.0545 12.5265 21.206 12.6492 21.2972 12.6431C21.3884 12.6371 21.4371 12.7586 21.3641 12.7708C21.2912 12.7829 21.0481 12.8984 21.0481 12.8984C21.0481 12.8984 20.9751 12.8072 20.9326 12.8984C20.89 12.9895 20.8657 13.0564 20.8779 13.1112C20.89 13.1658 20.9752 13.3239 20.9265 13.403C20.8779 13.482 20.811 13.5245 20.811 13.6218C20.811 13.719 20.8718 13.8224 20.7867 13.8649C20.7016 13.9074 20.6164 13.9197 20.5436 13.9439C20.4706 13.9683 20.4159 13.9743 20.3855 14.0412C20.3551 14.1081 20.2822 14.2053 20.1302 14.1992C19.9783 14.1932 19.9782 14.0716 19.8384 14.1871C19.6986 14.3026 19.6925 14.3695 19.6196 14.3391C19.5466 14.3087 19.6013 14.2661 19.6196 14.1506C19.6378 14.0352 19.3703 14.0656 19.6135 13.9318C19.8566 13.798 19.8566 13.7798 20.0208 13.7555C20.1849 13.7311 20.2761 13.8102 20.3429 13.6704C20.4098 13.5306 20.3429 13.4759 20.4767 13.4698C20.6104 13.4638 20.6955 13.5246 20.7198 13.3725C20.7441 13.2206 20.7258 13.093 20.7198 12.9957C20.7137 12.8984 20.6772 12.8072 20.7867 12.7708C20.8961 12.7343 20.9082 12.8012 20.9204 12.7161C20.9325 12.6309 20.8595 12.4547 20.975 12.4972Z" fill="#9FA6A9"/>
<path d="M18.5314 15.792C18.6469 15.8103 18.7016 16.0169 18.6652 16.102C18.6287 16.1871 18.5922 16.2844 18.6956 16.3025C18.799 16.3208 18.8719 16.333 18.8719 16.4059C18.8719 16.4789 18.9144 16.3269 18.9935 16.5214C19.0725 16.7159 18.9995 16.7463 19.0908 16.8922C19.1819 17.0381 19.2913 17.1111 19.1637 17.184C19.0361 17.257 19.1333 17.336 18.9996 17.2934C18.8659 17.2509 18.9206 17.2751 18.8537 17.1475C18.7868 17.0199 18.7443 17.1232 18.6836 17.1171C18.6227 17.1111 18.6045 17.1111 18.6531 17.026C18.7017 16.9409 18.7261 16.947 18.6714 16.8497C18.6168 16.7524 18.7018 16.6369 18.6228 16.6187C18.5438 16.6005 18.5195 16.7342 18.3797 16.8193C18.2399 16.9043 18.0333 16.9287 18.0393 16.8983C18.0454 16.8679 18.1244 16.8253 18.2521 16.6673C18.3797 16.5093 18.4588 16.6065 18.4345 16.3634C18.4101 16.1203 18.325 16.1871 18.4041 16.0169C18.4828 15.8467 18.5314 15.792 18.5314 15.792Z" fill="#9FA6A9"/>
<path d="M18.1424 17.1715C18.2344 17.2635 18.3551 17.2384 18.3187 17.3296C18.2822 17.4207 18.1739 17.4329 18.2341 17.5241C18.2943 17.6153 18.3491 17.749 18.4281 17.7368C18.5071 17.7247 18.501 17.6639 18.6955 17.6639C18.89 17.6639 19.0116 17.6213 19.0238 17.7004C19.0359 17.7794 18.9387 17.7854 18.811 17.9009C18.6834 18.0164 18.5557 18.1319 18.6591 18.2049C18.7624 18.2778 18.805 18.4116 18.7685 18.4602C18.732 18.5088 18.6955 18.5575 18.7806 18.6182C18.8657 18.679 19.273 18.6607 19.1757 18.8066C19.0784 18.9525 18.8414 19.0316 18.5921 19.0376C18.3428 19.0437 18.5432 18.9707 18.0388 18.9221C17.5344 18.8735 17.4493 19.0011 17.0968 18.831C16.7443 18.6607 16.5132 18.8066 16.3187 18.4966C16.1242 18.1867 16.2032 18.3386 15.96 18.0164C15.7169 17.6943 15.8324 17.6943 15.6257 17.5666C15.419 17.439 15.2428 17.2566 15.3826 17.2566C15.5224 17.2566 15.4555 17.0925 15.8871 17.4511C16.3186 17.8097 16.2031 17.7915 16.5193 18.0043C16.8353 18.2171 16.9387 18.2413 17.0542 18.2171C17.1697 18.1927 17.3399 18.2171 17.2305 18.0772C17.1211 17.9374 17.0603 17.7612 17.1515 17.7308C17.2427 17.7004 17.2366 17.8523 17.3885 17.6882C17.5405 17.5241 17.5405 17.4815 17.6743 17.4268C17.808 17.3722 17.7351 17.4268 17.8627 17.3478C17.9904 17.2688 18.039 17.0682 18.1424 17.1715Z" fill="#9FA6A9"/>
<path d="M19.814 17.8769C19.8801 17.9619 19.9903 18.0714 20.0389 18.1626C20.0875 18.2538 20.1788 18.0854 20.355 18.0905C20.5313 18.0957 20.7927 18.1929 20.9021 18.2416C21.0115 18.2903 21.2 18.3206 21.3155 18.4787C21.431 18.6367 21.516 18.5455 21.5222 18.7036C21.5282 18.8616 21.5526 18.8434 21.6559 18.9345C21.7592 19.0257 21.7774 19.1959 21.595 19.123C21.4127 19.05 21.358 18.8009 21.1635 18.8251C20.969 18.8495 21.048 18.9041 20.896 18.9345C20.7441 18.965 20.6772 18.9102 20.4948 18.8981C20.3125 18.8859 20.1788 18.9467 20.2639 18.7826C20.3489 18.6185 20.4098 18.6124 20.1119 18.4908C19.814 18.3692 19.6985 18.43 19.6985 18.3023C19.6985 18.1747 19.7471 18.1625 19.6317 18.0531C19.5162 17.9437 19.4797 17.8646 19.5526 17.8099C19.6256 17.7552 19.7715 17.8221 19.814 17.8769Z" fill="#9FA6A9"/>
<path d="M20.1666 19.6273C20.3672 19.7307 20.4462 19.9373 20.5435 19.9008C20.6408 19.8644 20.6043 19.8036 20.6772 19.5848C20.7501 19.3659 20.7562 19.141 20.8474 19.2323C20.9386 19.3234 20.8535 19.5014 20.9994 19.5583C21.1453 19.6152 21.1757 19.6578 21.2061 19.828C21.2365 19.9982 21.2669 19.9435 21.4189 20.1198C21.5708 20.2961 21.7073 20.2657 21.7333 20.4662C21.7593 20.6668 22.0146 20.8735 22.0267 21.0802C22.0389 21.2869 22.0753 21.4327 21.9234 21.6941C21.7714 21.9555 21.7106 22.0891 21.662 22.1987C21.6134 22.3081 21.4675 22.3628 21.3095 22.3628C21.1514 22.3628 21.0602 22.2959 20.963 22.3202C20.8657 22.3446 20.7989 22.4661 20.6834 22.381C20.5679 22.296 20.501 22.1865 20.4646 22.1196C20.4281 22.0528 20.4099 21.8279 20.2397 21.8522C20.0695 21.8765 20.0938 21.9616 19.9904 21.8522C19.887 21.7428 19.96 21.6516 19.6561 21.6029C19.3521 21.5543 19.2731 21.53 19.1454 21.5604C19.0178 21.5908 18.884 21.6333 18.7442 21.7428C18.6044 21.8522 18.3855 21.7975 18.264 21.8522C18.1424 21.9069 17.96 22.0285 17.8263 21.9556C17.6925 21.8826 17.7412 21.8461 17.7473 21.676C17.7533 21.5057 17.7412 21.6213 17.6561 21.3295C17.571 21.0377 17.6075 21.0803 17.5285 20.9405C17.4495 20.8007 17.3887 20.8676 17.4981 20.667C17.6075 20.4664 17.571 20.4239 17.6318 20.357C17.6926 20.2901 17.7473 20.3753 17.954 20.2354C18.1607 20.0956 18.2214 20.1564 18.4099 20.0835C18.5983 20.0105 18.6408 19.731 18.7563 19.6458C18.8718 19.5607 18.9022 19.4938 18.9873 19.4938C19.0724 19.4938 19.1697 19.5424 19.3216 19.6033C19.4736 19.6641 19.4432 19.6701 19.5709 19.5303C19.6985 19.3905 19.5709 19.2568 19.8019 19.281C20.0328 19.3054 20.1179 19.2689 20.1483 19.4026C20.1787 19.5362 20.1666 19.6273 20.1666 19.6273Z" fill="#9FA6A9"/>
<path d="M24.3852 22.4968C24.5068 22.3387 24.5676 22.3205 24.5251 22.1381C24.4825 21.9557 24.4946 21.8127 24.6527 21.9754C24.8107 22.1381 24.987 22.2293 25.1086 22.2354C25.2301 22.2414 25.5219 22.3327 25.2241 22.5576C24.9262 22.7825 24.9809 22.6245 24.7438 22.9588C24.5068 23.2931 24.6891 23.2992 24.4034 23.4633C24.1177 23.6274 23.8016 23.7003 23.8624 23.5545C23.9233 23.4086 23.8929 23.4086 24.1542 23.2141C24.4156 23.0196 24.5858 22.8737 24.5858 22.7096C24.5858 22.5455 24.3852 22.4968 24.3852 22.4968Z" fill="#9FA6A9"/>
<path d="M9.86928 20.8552C9.75986 20.6972 9.75985 20.6485 9.74773 20.3932C9.7356 20.1379 9.65043 20.0164 9.74773 19.8705C9.84502 19.7246 10.1003 19.4815 10.1976 19.3112C10.2948 19.1411 10.3191 18.7763 10.3799 19.1045C10.4407 19.4328 10.6352 19.6273 10.3434 20.065C10.0517 20.5026 9.86928 20.8552 9.86928 20.8552Z" fill="#9FA6A9"/>
<path d="M4.02172 11.8103C3.99737 11.7617 4.1068 11.6036 4.1068 11.6036C4.1068 11.6036 4.24057 11.5307 4.20409 11.2632C4.16762 10.9957 4.14327 11.1538 4.04606 10.8985C3.94877 10.6431 3.80296 10.6917 3.94877 10.5216C4.09467 10.3513 4.26482 10.0961 4.3013 10.3027C4.33777 10.5094 4.25269 10.6431 4.33777 10.7404C4.42285 10.8377 4.59309 10.8578 4.6903 11.0179C4.7876 11.178 5.1766 11.2389 4.8848 11.4455C4.59301 11.6522 4.45933 11.5184 4.3499 11.6643C4.24048 11.8103 4.02172 11.8103 4.02172 11.8103Z" fill="#9FA6A9"/>
<path d="M3.63264 11.6159C3.82714 11.5065 3.89825 11.5308 3.887 11.3362C3.87575 11.1417 4.00952 10.9715 3.8028 10.9593C3.59617 10.9472 3.53535 11.0688 3.511 11.1538C3.48666 11.2389 3.48666 11.2633 3.54748 11.3483C3.6083 11.4334 3.62043 11.5551 3.59608 11.6158C3.57191 11.6767 3.63264 11.6159 3.63264 11.6159Z" fill="#9FA6A9"/>
<path d="M2.92748 9.71919C3.08551 9.60977 3.34083 9.70706 3.35296 9.476C3.36509 9.24502 3.42591 9.1842 3.07338 9.15994C2.72085 9.1356 2.72085 9.1356 2.502 9.15994C2.28316 9.18429 2.07652 8.96544 2.24668 9.29371C2.41684 9.62198 2.44118 9.69493 2.57495 9.71919C2.70872 9.74345 2.92748 9.71919 2.92748 9.71919Z" fill="#9FA6A9"/>
<path d="M27.4001 8.84378C27.2103 8.62687 26.9016 8.6128 27.1447 8.47903C27.3879 8.34535 27.5338 8.26019 27.7648 8.21158C27.9958 8.16298 28.239 8.26019 28.6159 8.35748C28.9927 8.45478 29.6006 8.36961 29.8803 8.45478C30.1598 8.53985 30.2936 8.7101 30.3787 8.69788C30.4638 8.68575 30.707 8.43043 30.9501 8.43043C31.1932 8.43043 31.3148 8.39396 31.8132 8.45478C32.3117 8.5156 32.798 8.53985 32.8101 8.66149C32.8222 8.78305 32.8222 8.84387 33.0046 8.84387C33.187 8.84387 33.345 8.73444 33.4544 8.90469C33.5638 9.07493 33.734 9.19648 33.7097 9.06271C33.6854 8.92903 33.5638 8.81961 33.6611 8.77092C33.7584 8.72231 34.038 8.69797 34.111 8.72231C34.1839 8.74666 34.4149 8.78313 34.4878 8.77092C34.5608 8.75879 34.5122 8.63715 34.7553 8.7101C34.9984 8.78305 35.0349 8.96542 35.0836 8.97755C35.1322 8.98968 35.2416 8.79061 35.2537 8.65921C35.2658 8.52772 35.3753 8.52772 35.1565 8.35757C34.9377 8.18732 35.1353 7.98069 35.2918 8.05364C35.4482 8.12659 35.351 8.22389 35.509 8.38191C35.6671 8.53994 35.6914 8.67371 35.8008 8.62502C35.9103 8.57642 35.8494 8.3697 35.9953 8.52772C36.1412 8.68575 36.1777 8.60612 36.3114 8.57905C36.4452 8.55198 36.3357 8.4669 36.4938 8.55198C36.6518 8.63706 36.9192 8.73436 36.7247 8.89238C36.5302 9.05041 36.2384 9.02615 36.0318 9.14771C35.8251 9.26926 35.8859 9.23278 35.8251 9.37868C35.7643 9.52458 35.7886 9.53671 35.5455 9.59753C35.3023 9.65835 35.2295 9.60966 35.2416 9.81638C35.2537 10.0231 35.2295 10.0474 35.1443 10.1568C35.0592 10.2662 35.1078 10.3635 35.2051 10.4121C35.3024 10.4607 35.4117 10.3756 35.4117 10.5215C35.4117 10.6674 35.5941 10.7768 35.8372 10.7768C36.0803 10.7768 36.1897 10.8377 36.3356 11.02C36.4815 11.2023 36.2748 11.2145 36.518 11.4454C36.7611 11.6764 36.9922 11.7858 37.0287 11.5792C37.0651 11.3726 37.0287 11.3239 37.0651 11.0808C37.1016 10.8377 37.3326 10.8133 37.211 10.5945C37.0895 10.3756 36.9071 10.2784 37.0773 10.1568C37.2475 10.0352 37.0408 9.9229 37.3326 9.86357C37.6244 9.80425 37.8189 9.75556 37.9404 9.9744C38.062 10.1933 37.9283 10.3391 38.0499 10.4364C38.1714 10.5337 38.5483 10.3878 38.6212 10.3027C38.6942 10.2176 38.9008 10.2297 38.9738 10.5458C39.0467 10.8618 39.0953 10.947 39.2047 10.9835C39.3142 11.02 39.3142 11.0929 39.4479 11.2145C39.5816 11.336 39.8369 11.5305 39.4479 11.567C39.0589 11.6035 38.7428 11.5549 38.5969 11.6885C38.451 11.8222 38.4389 11.725 38.5361 11.9074C38.6334 12.0898 38.5604 11.9682 38.6334 12.1992C38.7063 12.4302 39.0711 12.4302 38.8035 12.5882C38.536 12.7462 38.5847 12.7827 38.4267 12.7341C38.2686 12.6855 38.2322 12.3364 38.0498 12.6204C37.8674 12.9043 37.8917 13.0138 37.7337 13.0988C37.5757 13.1839 37.5635 13.0137 37.4177 13.2812C37.2718 13.5487 37.5027 13.573 37.1746 13.8769C36.8463 14.1808 36.6883 14.035 36.6639 14.2903C36.6396 14.5456 36.7977 14.8495 36.7125 14.9103C36.6274 14.9712 36.6396 14.9589 36.5424 14.7888C36.4451 14.6185 36.4938 14.5213 36.1534 14.497C35.813 14.4726 35.8373 14.3876 35.7035 14.5335C35.5698 14.6794 35.7521 14.728 35.3753 14.6794C34.9984 14.6308 34.9498 14.1809 34.8768 14.7037C34.8039 15.2265 34.7918 15.2872 34.9133 15.4331C35.0349 15.579 35.3631 15.9315 35.509 15.7735C35.6549 15.6155 35.4726 15.421 35.7522 15.4817C36.0318 15.5425 36.1048 15.4696 36.0562 15.6276C36.0076 15.7856 35.6307 15.81 35.9346 15.9559C36.2385 16.1018 36.4938 15.9315 36.5181 16.1626C36.5425 16.3936 36.4816 16.4544 36.4938 16.5881C36.5059 16.7218 36.5667 16.8191 36.8463 16.8191C37.1259 16.8191 37.1137 16.7096 37.1867 16.8555C37.2596 17.0014 37.4906 16.9285 37.5879 16.7218C37.6852 16.515 37.7582 16.2841 37.904 16.5273C38.0499 16.7704 38.0741 16.8191 38.22 16.7218C38.3659 16.6245 38.3659 16.6245 38.3659 16.6245C38.3659 16.6245 38.5239 16.4786 38.6577 16.6001C38.7915 16.7217 39.0102 16.588 39.0589 16.7582C39.1075 16.9283 39.0346 16.9527 39.2413 17.0135C39.448 17.0743 39.6911 16.977 39.8127 17.1472C39.9342 17.3174 39.606 17.208 39.9586 17.4146C40.3111 17.6213 40.4205 17.6456 40.3963 17.7794C40.3719 17.9131 40.4692 17.9374 40.7853 18.0103C41.1013 18.0833 41.0527 18.0468 41.3081 18.2413C41.5634 18.4358 41.77 18.3507 41.8552 18.448C41.9403 18.5453 42.0862 18.5696 41.9646 18.837C41.843 19.1045 41.7215 19.0437 41.6242 19.2504C41.5269 19.4571 41.4418 19.5057 41.4662 19.8704C41.4905 20.2352 41.5026 20.1987 41.4297 20.3811C41.3567 20.5635 41.0893 20.5877 40.8705 20.7215C40.6516 20.8553 40.6395 20.7458 40.4936 21.1105C40.3477 21.4752 40.4328 21.2807 40.3112 21.5968C40.1897 21.9129 40.3598 21.7548 40.0073 21.9372C39.6547 22.1196 39.521 21.9615 39.4845 22.071C39.448 22.1804 39.6912 22.0953 39.4359 22.3263C39.1806 22.5573 39.0712 22.6181 38.9131 22.7153C38.7551 22.8125 38.6578 22.922 38.6943 23.1286C38.7308 23.3353 38.9131 23.3231 38.7064 23.5176C38.4997 23.7121 38.4146 23.5176 38.3539 23.8337C38.2931 24.1498 38.2323 24.0039 38.2931 24.3321C38.3539 24.6604 38.6699 24.6604 38.3781 24.8428C38.0863 25.0251 37.7703 25.1102 37.5879 24.6726C37.4055 24.2349 37.4055 24.0648 37.4055 23.773C37.4055 23.4812 37.3691 23.7 37.515 23.2016C37.6609 22.7032 37.4177 22.8733 37.5393 22.3263C37.6609 21.7792 37.6366 21.1957 37.7582 20.7944C37.8797 20.3932 38.1472 20.5026 37.8797 20.138C37.6123 19.7732 37.5637 19.8341 37.3327 19.5909C37.1017 19.3478 37.2476 19.3964 37.1138 19.1046C36.9801 18.8128 36.895 18.8371 36.7856 18.6183C36.6761 18.3994 36.6153 18.4724 36.7247 18.1077C36.8342 17.743 36.5911 17.7552 36.8342 17.6458C37.0773 17.5363 37.0409 17.2689 37.0044 17.1716C36.9679 17.0743 37.1868 17.0378 36.8464 16.9892C36.506 16.9406 36.4087 17.05 36.2871 16.8433C36.1656 16.6366 36.2628 16.6002 36.0076 16.4786C35.7522 16.357 35.4726 16.357 35.3754 16.2597C35.2781 16.1624 35.2781 16.1624 35.2781 16.1624C35.2781 16.1624 35.4604 16.0895 35.0471 16.0409C34.6337 15.9923 34.3298 16.0409 34.1231 15.7491C33.9164 15.4573 33.9651 15.6275 33.9164 15.3601C33.8678 15.0926 33.8069 15.0926 33.6124 14.9224C33.4179 14.7522 33.4179 14.6549 33.2356 14.582C33.0532 14.509 33.0167 14.5334 33.0167 14.5699C33.0167 14.6063 33.0046 14.7522 33.1747 14.8859C33.345 15.0197 33.3571 15.1412 33.3571 15.202C33.3571 15.2628 33.1261 15.3357 33.1261 15.3357C33.1261 15.3357 33.1261 15.2628 33.0532 15.0926C32.9802 14.9224 32.9559 14.8373 32.81 14.6307C32.6641 14.424 32.6276 14.3997 32.6276 14.3997C32.6276 14.3997 32.4574 14.1322 32.1657 13.7797C31.8739 13.4272 31.7888 13.6459 31.7888 13.2448C31.7888 12.8436 31.8618 12.8436 31.7888 12.564C31.7159 12.2844 31.5457 12.1507 31.6915 12.1021C31.8374 12.0535 31.9225 11.9805 31.655 11.7495C31.3876 11.5186 31.2903 11.6401 31.1931 11.3241C31.0958 11.008 31.3025 11.0323 30.9013 10.8864C30.5001 10.7405 30.4515 10.6189 30.2691 10.5338C30.0867 10.4487 29.9773 10.4001 29.9773 10.4001C29.9773 10.4001 30.0138 10.3637 29.5761 10.3272C29.1384 10.2907 29.1871 10.0841 28.8588 10.2178C28.5305 10.3515 28.4819 10.3758 28.4819 10.3758C28.4819 10.3758 28.6643 10.157 28.3482 10.1813C28.0322 10.2056 28.105 10.2786 28.0929 10.4245C28.0808 10.5704 28.1294 10.7405 27.9105 10.8257C27.6917 10.9108 27.3756 11.1418 27.4972 10.8987C27.6187 10.6555 27.9227 10.4853 27.8132 10.4245C27.7038 10.3637 27.4728 10.5582 27.4485 10.3637C27.4242 10.1692 27.4728 10.0719 27.2175 10.0597C26.9622 10.0476 26.7556 9.93819 26.9501 9.85303C27.1446 9.76795 27.3269 9.80442 27.3878 9.5977C27.4486 9.39099 27.8984 9.34238 27.3999 9.3546C26.9015 9.36673 26.6826 9.36673 26.7434 9.26952C26.8043 9.17223 26.7799 8.98994 27.1324 9.03854C27.4851 9.08688 27.4851 8.94099 27.4001 8.84378Z" fill="#9FA6A9"/>
</g>
<path d="M7.462 19.2034C7.40848 19.0831 7.34168 18.9828 7.25476 18.9026C7.16115 18.8224 7.06087 18.7622 6.94046 18.7154C6.82682 18.6752 6.69973 18.6553 6.57272 18.6553C6.43895 18.6553 6.31195 18.6753 6.19831 18.7154C6.18495 18.7221 6.16491 18.7287 6.15146 18.7355C6.05786 18.7824 5.96426 18.8357 5.89069 18.9027C5.79709 18.9829 5.7302 19.0832 5.67668 19.2035C5.62315 19.3173 5.59644 19.4576 5.59644 19.6048V20.9555C5.59644 21.1093 5.62315 21.2429 5.67668 21.3633C5.73012 21.4837 5.797 21.5773 5.89069 21.6642C5.97762 21.7445 6.08458 21.8046 6.19822 21.8446C6.31187 21.8848 6.43895 21.9049 6.57264 21.9049C6.63284 21.9049 6.69973 21.8982 6.75984 21.8915C6.82005 21.8781 6.88685 21.8647 6.94037 21.8446C7.06078 21.8046 7.16106 21.7445 7.25467 21.6642C7.34159 21.5773 7.40848 21.4837 7.46191 21.3633C7.51544 21.2429 7.54216 21.1093 7.54216 20.9555V19.6048C7.54225 19.4575 7.51553 19.3171 7.462 19.2034ZM6.9605 20.9487C6.9605 21.0891 6.92042 21.1893 6.85353 21.2697C6.78665 21.3366 6.70641 21.3765 6.60612 21.3833H6.57272C6.4524 21.3833 6.35871 21.3431 6.28523 21.2697C6.21835 21.1893 6.17827 21.0891 6.17827 20.9487V19.6181C6.17827 19.5913 6.17827 19.5713 6.18495 19.5512C6.18495 19.5446 6.19163 19.5379 6.19163 19.5379C6.19831 19.4377 6.23171 19.364 6.28523 19.2971C6.29859 19.2839 6.31195 19.2704 6.32531 19.2637C6.3922 19.2035 6.47244 19.1834 6.57272 19.1834C6.68645 19.1834 6.77997 19.2169 6.85362 19.2971C6.92051 19.3774 6.96059 19.4843 6.96059 19.6181L6.9605 20.9487Z" fill="#CECECF"/>
<path d="M9.01326 18.6816L8.36462 19.25V19.8785L9.01326 19.3102V21.8778H9.60168V18.6816H9.01326Z" fill="#CECECF"/>
<path d="M10.6783 18.6816V19.7114H11.2333V19.2099H12.0824L11.0393 21.8778H11.6745L12.7109 19.2099V18.6816H10.6783Z" fill="#CECECF"/>
<path d="M15.1182 19.2034C15.0647 19.0831 14.9979 18.9828 14.9109 18.9026C14.8173 18.8224 14.7171 18.7622 14.5966 18.7154C14.4763 18.6752 14.3559 18.6553 14.2289 18.6553C14.0951 18.6553 13.9681 18.6753 13.8545 18.7154C13.7342 18.7622 13.6338 18.8224 13.5469 18.9026C13.4533 18.9828 13.3797 19.0831 13.3329 19.2034C13.2794 19.3172 13.2526 19.4575 13.2526 19.6047V20.9554C13.2526 21.1092 13.2794 21.2429 13.3329 21.3632C13.3797 21.4836 13.4533 21.5772 13.5469 21.6641C13.6338 21.7444 13.7341 21.8045 13.8545 21.8446C13.9681 21.8847 14.0952 21.9048 14.2289 21.9048C14.3559 21.9048 14.4763 21.8847 14.5966 21.8446C14.717 21.8045 14.8173 21.7444 14.9109 21.6641C14.9979 21.5772 15.0648 21.4836 15.1182 21.3632C15.1716 21.2429 15.1984 21.1092 15.1984 20.9554V19.6047C15.1983 19.4575 15.1716 19.3171 15.1182 19.2034ZM14.61 20.9487C14.61 21.0891 14.5766 21.1893 14.5097 21.2697C14.4362 21.3431 14.3426 21.3833 14.2289 21.3833C14.1086 21.3833 14.015 21.3431 13.9414 21.2697C13.8746 21.1893 13.8345 21.0891 13.8345 20.9487V19.6181C13.8345 19.4843 13.8746 19.3773 13.9414 19.2971C14.015 19.2169 14.1086 19.1834 14.2289 19.1834C14.3426 19.1834 14.4362 19.2169 14.5097 19.2971C14.5766 19.3774 14.61 19.4843 14.61 19.6181V20.9487Z" fill="#CECECF"/>
<path d="M20.0125 20.5142C19.9724 20.3939 19.9055 20.2936 19.8253 20.2134C19.7451 20.1331 19.6581 20.073 19.5579 20.0262C19.4576 19.9861 19.3505 19.9659 19.2436 19.9659C19.2035 19.9659 19.1633 19.9659 19.1232 19.9726C19.0832 19.9793 19.043 19.986 19.0096 20.006L19.2302 19.5715L19.6715 18.6821H19.0363L18.9694 18.8159V18.8226L18.8892 18.9831L18.361 20.0662C18.3543 20.0796 18.3476 20.093 18.3409 20.1064C18.274 20.2401 18.2206 20.3671 18.1737 20.4942C18.1202 20.6279 18.0935 20.7751 18.0935 20.9221C18.0935 21.0759 18.1135 21.2163 18.1671 21.3433C18.2206 21.4637 18.2874 21.5707 18.3811 21.6509C18.448 21.7178 18.5148 21.7646 18.6017 21.8047H18.6084C18.6352 21.8181 18.6686 21.8315 18.6953 21.8448C18.8156 21.885 18.9494 21.905 19.0898 21.905C19.2302 21.905 19.3573 21.885 19.4776 21.8382C19.6046 21.798 19.705 21.7312 19.7986 21.6442L19.8053 21.6375C19.8922 21.5506 19.9591 21.4571 20.0058 21.33C20.0594 21.2096 20.0861 21.0692 20.0861 20.9088C20.0861 20.7616 20.0594 20.6345 20.0125 20.5142ZM19.0898 20.4474C19.2168 20.4474 19.3171 20.4875 19.3908 20.5744C19.4643 20.6547 19.5044 20.7751 19.5044 20.9154C19.5044 21.0625 19.4643 21.1828 19.3841 21.2631C19.3038 21.3433 19.2102 21.3834 19.0898 21.3834C18.9695 21.3834 18.8691 21.3433 18.7889 21.2631C18.7153 21.1828 18.6753 21.0625 18.6753 20.9154C18.6753 20.7683 18.7153 20.648 18.7889 20.5677C18.8691 20.4875 18.9694 20.4474 19.0898 20.4474Z" fill="#CECECF"/>
<path d="M22.5936 20.3536C22.5669 20.2133 22.4866 20.0728 22.3596 19.9526C22.2927 19.8856 22.2125 19.8322 22.1122 19.792C22.0119 19.7519 21.8982 19.7319 21.7578 19.7319C21.6508 19.7319 21.5572 19.752 21.4703 19.7854C21.3834 19.8188 21.3232 19.8522 21.2831 19.8924V19.2104H22.5736V18.6821H20.7482V20.4875H21.2831C21.3031 20.4274 21.3433 20.3671 21.4034 20.3136C21.4435 20.2736 21.4903 20.2468 21.5572 20.2401C21.5906 20.2267 21.6308 20.2267 21.6709 20.2267C21.8179 20.2267 21.9183 20.2802 21.9717 20.3738C22.0319 20.474 22.0653 20.6146 22.0653 20.8017C22.0653 20.902 22.052 20.9956 22.0385 21.0826C22.0385 21.096 22.0318 21.1026 22.0251 21.1094C22.0251 21.1161 22.0251 21.1161 22.0251 21.1161C22.0051 21.1829 21.9784 21.2364 21.9382 21.2766C21.8647 21.35 21.7777 21.3835 21.6574 21.3835C21.5371 21.3835 21.4434 21.35 21.3833 21.2766C21.3231 21.2096 21.283 21.1161 21.2696 20.989H20.6812C20.6946 21.1027 20.7146 21.2163 20.7481 21.33C20.7815 21.4504 20.8417 21.5506 20.942 21.651C21.0089 21.7246 21.1092 21.7781 21.2296 21.8315C21.3432 21.885 21.4903 21.9051 21.6575 21.9051C21.7177 21.9051 21.7645 21.9051 21.8113 21.8917H21.818C21.9183 21.885 22.0052 21.8649 22.0854 21.8316C22.1991 21.7782 22.2927 21.7179 22.3663 21.6511C22.48 21.5307 22.5535 21.4037 22.5936 21.27C22.627 21.1362 22.6472 20.9824 22.6472 20.8019C22.6472 20.6479 22.627 20.5008 22.5936 20.3536Z" fill="#CECECF"/>
<path d="M23.202 18.6816V19.7114H23.7571V19.2099H24.6063L23.5698 21.8778H24.1984L25.2414 19.2099V18.6816H23.202Z" fill="#CECECF"/>
<path d="M27.6752 19.2236C27.6284 19.0966 27.5549 18.9963 27.468 18.9094C27.3744 18.8291 27.2741 18.7622 27.1471 18.7222C27.0267 18.6753 26.8997 18.6553 26.7592 18.6553C26.6188 18.6553 26.4851 18.6753 26.3648 18.7222C26.2444 18.769 26.1374 18.8358 26.0438 18.916C25.9569 19.0029 25.89 19.11 25.8365 19.2303C25.7831 19.3573 25.7563 19.4977 25.7563 19.6515C25.7563 19.8053 25.7831 19.9391 25.8299 20.0526C25.8767 20.1664 25.9436 20.2667 26.0171 20.3468C26.0973 20.4271 26.1909 20.4939 26.2912 20.534C26.3915 20.5809 26.4984 20.601 26.6055 20.601C26.6456 20.601 26.6857 20.601 26.7258 20.5943C26.7659 20.5876 26.8061 20.5742 26.8395 20.5608L26.1775 21.878H26.8126L27.488 20.5007C27.5616 20.3536 27.6218 20.2065 27.6752 20.0728C27.7287 19.9324 27.7554 19.792 27.7554 19.6448C27.7554 19.4843 27.7287 19.3439 27.6752 19.2236ZM27.0534 19.9925C26.9731 20.0728 26.8795 20.1129 26.7592 20.1129C26.6322 20.1129 26.5319 20.0728 26.4583 19.9925C26.378 19.9056 26.3446 19.7919 26.3446 19.6515C26.3446 19.4977 26.3847 19.3841 26.4583 19.3038C26.5385 19.2236 26.6388 19.1834 26.7592 19.1834C26.8795 19.1834 26.9731 19.2236 27.0534 19.3038C27.1336 19.3841 27.167 19.4977 27.167 19.6515C27.1671 19.7986 27.1336 19.9123 27.0534 19.9925Z" fill="#CECECF"/>
<path d="M31.5066 18.6816L30.8513 19.25V19.8785L31.5066 19.3102V21.8778H32.0884V18.6816H31.5066Z" fill="#CECECF"/>
<path d="M33.1649 18.6816V19.7114H33.7265V19.2099H34.569L33.5326 21.8778H34.1678L35.2042 19.2099V18.6816H33.1649Z" fill="#CECECF"/>
<path d="M36.6084 18.6816L35.9598 19.25V19.8785L36.6084 19.3102V21.8778H37.1968V18.6816H36.6084Z" fill="#CECECF"/>
<path d="M40.1923 19.2236C40.1455 19.0966 40.072 18.9963 39.9851 18.9094C39.8915 18.8291 39.7911 18.7622 39.6641 18.7222C39.5438 18.6753 39.4167 18.6553 39.2763 18.6553C39.1359 18.6553 39.0022 18.6753 38.8818 18.7222C38.7615 18.769 38.6545 18.8358 38.5608 18.916C38.4739 19.0029 38.4003 19.11 38.3536 19.2303C38.3 19.3573 38.2733 19.4977 38.2733 19.6515C38.2733 19.8053 38.3 19.9391 38.3469 20.0526C38.3937 20.1664 38.4605 20.2667 38.5341 20.3468C38.6143 20.4271 38.7013 20.4939 38.8082 20.534C38.9085 20.5809 39.0155 20.601 39.1224 20.601C39.1625 20.601 39.2027 20.601 39.2427 20.5943C39.2829 20.5876 39.323 20.5742 39.3565 20.5608L38.6945 21.878H39.3297L40.005 20.5007C40.0786 20.3536 40.1388 20.2065 40.1922 20.0728C40.2457 19.9324 40.2725 19.792 40.2725 19.6448C40.2726 19.4843 40.2458 19.3439 40.1923 19.2236ZM39.5705 19.9925C39.4902 20.0728 39.3966 20.1129 39.2763 20.1129C39.1493 20.1129 39.049 20.0728 38.9754 19.9925C38.8951 19.9056 38.8617 19.7919 38.8617 19.6515C38.8617 19.4977 38.9018 19.3841 38.9754 19.3038C39.0556 19.2236 39.1559 19.1834 39.2763 19.1834C39.3966 19.1834 39.4902 19.2236 39.5705 19.3038C39.6507 19.3841 39.6841 19.4977 39.6841 19.6515C39.6841 19.7986 39.6507 19.9123 39.5705 19.9925Z" fill="#CECECF"/>
<path d="M28.4241 27.1004C28.384 27.0135 28.3304 26.9399 28.2702 26.8797C28.2034 26.8196 28.1298 26.7728 28.0429 26.7461C27.9559 26.7126 27.8623 26.6992 27.7687 26.6992C27.6685 26.6992 27.5815 26.7126 27.4946 26.7461C27.4077 26.7729 27.3341 26.8196 27.2672 26.8797C27.2004 26.9399 27.1469 27.0135 27.1067 27.1004C27.0733 27.1874 27.0532 27.2876 27.0532 27.3946V28.3842C27.0532 28.4979 27.0733 28.5982 27.1067 28.6851C27.1469 28.772 27.2004 28.8456 27.2672 28.9057C27.3341 28.9659 27.4077 29.0127 27.4946 29.0394C27.5815 29.0729 27.6685 29.0862 27.7687 29.0862C27.8623 29.0862 27.9559 29.0729 28.0429 29.0394C28.1298 29.0127 28.2034 28.9659 28.2702 28.9057C28.3304 28.8456 28.3839 28.772 28.4241 28.6851C28.4642 28.5982 28.4776 28.4979 28.4776 28.3842V27.3946C28.4776 27.2877 28.4642 27.1875 28.4241 27.1004ZM28.0496 28.3843C28.0496 28.4845 28.0229 28.5581 27.9761 28.6183C27.9225 28.6717 27.8558 28.6985 27.7688 28.6985C27.6819 28.6985 27.615 28.6717 27.5616 28.6183C27.5081 28.5581 27.4813 28.4845 27.4813 28.3843V27.4014C27.4813 27.3079 27.5081 27.2275 27.5616 27.1673C27.6151 27.1139 27.6819 27.0871 27.7688 27.0871C27.8558 27.0871 27.9226 27.1139 27.9761 27.1673C28.0229 27.2275 28.0496 27.3078 28.0496 27.4014V28.3843Z" fill="#CECECF"/>
<path d="M30.3365 27.9496C30.3164 27.8427 30.2562 27.7423 30.1626 27.6487C30.1158 27.6019 30.0557 27.5618 29.9821 27.535C29.9085 27.5016 29.8216 27.4882 29.7213 27.4882C29.6478 27.4882 29.5743 27.5016 29.5141 27.5283C29.4472 27.5483 29.4005 27.5751 29.3737 27.6086V27.1004H30.3232V26.7192H28.9792V28.0431H29.3737C29.3871 27.9964 29.4206 27.9563 29.4607 27.9161C29.5074 27.876 29.5676 27.8493 29.6612 27.8493C29.7615 27.8493 29.8351 27.8894 29.8818 27.9631C29.922 28.0365 29.942 28.1369 29.942 28.2773C29.942 28.3508 29.942 28.4176 29.9287 28.4779C29.9153 28.538 29.8886 28.5849 29.8551 28.625C29.8016 28.6784 29.7348 28.6984 29.6479 28.6984C29.5609 28.6984 29.4874 28.6784 29.4473 28.625C29.4005 28.5714 29.3737 28.5046 29.3604 28.411H28.9324C28.9391 28.4979 28.9525 28.5781 28.9793 28.665C29.006 28.7453 29.0528 28.8255 29.1264 28.899C29.1732 28.9459 29.2467 28.9926 29.3337 29.0327C29.4206 29.0662 29.5275 29.0862 29.6479 29.0862C29.7682 29.0862 29.8752 29.0662 29.9622 29.0327C30.0424 28.9926 30.116 28.9459 30.1694 28.8923C30.2497 28.8122 30.3098 28.7185 30.3366 28.6183C30.3633 28.5247 30.3767 28.4043 30.3767 28.2773C30.3766 28.1636 30.3632 28.0566 30.3365 27.9496Z" fill="#CECECF"/>
<path d="M31.56 26.4722L30.6172 29.3139H31.0183L31.9611 26.4722H31.56Z" fill="#CECECF"/>
<path d="M32.8505 26.7192L32.3691 27.1339V27.5952L32.8505 27.1807V29.0662H33.2784V26.7192H32.8505Z" fill="#CECECF"/>
<path d="M34.7228 26.7192L34.2413 27.1339V27.5952L34.7228 27.1807V29.0662H35.1507V26.7192H34.7228Z" fill="#CECECF"/>
<path d="M35.9732 27.9229V28.324H36.9895V27.9229H35.9732Z" fill="#CECECF"/>
<path d="M38.8217 27.1004C38.7816 27.0135 38.7281 26.9399 38.6612 26.8797C38.6011 26.8196 38.5208 26.7728 38.4339 26.7461C38.347 26.7126 38.26 26.6992 38.1664 26.6992C38.0662 26.6992 37.9792 26.7126 37.8923 26.7461C37.8054 26.7729 37.7318 26.8196 37.6649 26.8797C37.5981 26.9399 37.5446 27.0135 37.5045 27.1004C37.4644 27.1874 37.4509 27.2876 37.4509 27.3946V28.3842C37.4509 28.4979 37.4643 28.5982 37.5045 28.6851C37.5445 28.772 37.5981 28.8456 37.6649 28.9057C37.7318 28.9659 37.8054 29.0127 37.8923 29.0394C37.9792 29.0729 38.0662 29.0862 38.1664 29.0862C38.26 29.0862 38.347 29.0729 38.4339 29.0394C38.5208 29.0127 38.6011 28.9659 38.6612 28.9057C38.7281 28.8456 38.7816 28.772 38.8217 28.6851C38.8551 28.5982 38.8751 28.4979 38.8751 28.3842V27.3946C38.8751 27.2877 38.8551 27.1875 38.8217 27.1004ZM38.4472 28.3843C38.4472 28.4845 38.4204 28.5581 38.3669 28.6183C38.3202 28.6717 38.2466 28.6985 38.1664 28.6985C38.0794 28.6985 38.0059 28.6717 37.9591 28.6183C37.9056 28.5581 37.8789 28.4845 37.8789 28.3843V27.4014C37.8789 27.3079 37.9056 27.2275 37.9591 27.1673C38.006 27.1139 38.0794 27.0871 38.1664 27.0871C38.2466 27.0871 38.3202 27.1139 38.3669 27.1673C38.4204 27.2275 38.4472 27.3078 38.4472 27.4014V28.3843Z" fill="#CECECF"/>
<path d="M40.6938 27.1004C40.6537 27.0135 40.6002 26.9399 40.54 26.8797C40.4731 26.8196 40.3996 26.7728 40.3127 26.7461C40.2258 26.7126 40.1322 26.6992 40.0385 26.6992C39.9382 26.6992 39.8513 26.7126 39.7644 26.7461C39.6774 26.7729 39.6039 26.8196 39.537 26.8797C39.4702 26.9399 39.4167 27.0135 39.3765 27.1004C39.3431 27.1874 39.3231 27.2876 39.3231 27.3946V28.3842C39.3231 28.4979 39.3431 28.5982 39.3765 28.6851C39.4166 28.772 39.4701 28.8456 39.537 28.9057C39.6039 28.9659 39.6774 29.0127 39.7644 29.0394C39.8513 29.0729 39.9382 29.0862 40.0385 29.0862C40.1321 29.0862 40.2257 29.0729 40.3127 29.0394C40.3996 29.0127 40.4732 28.9659 40.54 28.9057C40.6002 28.8456 40.6537 28.772 40.6938 28.6851C40.7339 28.5982 40.7472 28.4979 40.7472 28.3842V27.3946C40.7473 27.2877 40.734 27.1875 40.6938 27.1004ZM40.3194 28.3843C40.3194 28.4845 40.2926 28.5581 40.2458 28.6183C40.1924 28.6717 40.1255 28.6985 40.0386 28.6985C39.9517 28.6985 39.8848 28.6717 39.8313 28.6183C39.7779 28.5581 39.7511 28.4845 39.7511 28.3843V27.4014C39.7511 27.3079 39.7779 27.2275 39.8313 27.1673C39.8849 27.1139 39.9517 27.0871 40.0386 27.0871C40.1255 27.0871 40.1924 27.1139 40.2458 27.1673C40.2927 27.2275 40.3194 27.3078 40.3194 27.4014V28.3843Z" fill="#CECECF"/>
<path d="M5.93085 22.7007V22.9147H6.25182V23.9244H6.49256V22.9147H6.81353V22.7007H5.93085Z" fill="#CECECF"/>
<path d="M7.89667 23.0218C7.88331 22.9818 7.87654 22.9484 7.85659 22.9149C7.84323 22.8814 7.81643 22.8479 7.78303 22.8146C7.74295 22.7745 7.6961 22.741 7.64267 22.721C7.58914 22.7009 7.52894 22.6875 7.46214 22.6875C7.38857 22.6875 7.32837 22.7009 7.27493 22.721C7.22149 22.741 7.17465 22.7745 7.13457 22.8146C7.10117 22.848 7.07436 22.8815 7.06101 22.9149C7.04088 22.9484 7.0342 22.9818 7.02093 23.0218C7.01425 23.062 7.01425 23.1088 7.00757 23.1556V23.4698C7.01425 23.5166 7.01425 23.5567 7.02093 23.5969C7.03429 23.637 7.04097 23.6771 7.06101 23.7105C7.07436 23.7374 7.10108 23.7708 7.13457 23.8041C7.17465 23.8443 7.22149 23.8777 7.27493 23.8978C7.32846 23.9246 7.38866 23.9312 7.46214 23.9312C7.52902 23.9312 7.58923 23.9246 7.64267 23.8978C7.6961 23.8777 7.74295 23.8443 7.78303 23.8041C7.81643 23.7708 7.84323 23.7373 7.85659 23.7105C7.87663 23.6771 7.88331 23.637 7.89667 23.5969C7.90335 23.5567 7.91003 23.5166 7.91003 23.4698V23.1556C7.91003 23.1088 7.90335 23.062 7.89667 23.0218ZM7.6693 23.4565C7.6693 23.4966 7.66262 23.5233 7.65594 23.5501C7.65594 23.5769 7.64926 23.5969 7.64258 23.6103C7.6359 23.6236 7.62245 23.637 7.60909 23.6503C7.59573 23.6705 7.57569 23.6904 7.54897 23.6971C7.52226 23.7105 7.49545 23.7171 7.46205 23.7171C7.42865 23.7171 7.39525 23.7105 7.36845 23.6971C7.34841 23.6904 7.3216 23.6704 7.30165 23.6503C7.29497 23.637 7.28152 23.6236 7.27484 23.6103C7.26816 23.5969 7.26148 23.5768 7.26148 23.5501C7.2548 23.5233 7.24812 23.4966 7.24812 23.4565V23.1623C7.24812 23.1289 7.2548 23.0954 7.26148 23.0687C7.26148 23.0419 7.26816 23.0218 7.27484 23.0086C7.28152 22.9952 7.29488 22.9818 7.30165 22.9684C7.32169 22.9484 7.3485 22.935 7.36845 22.9216C7.39525 22.9083 7.42865 22.9016 7.46205 22.9016C7.49545 22.9016 7.52226 22.9083 7.54897 22.9216C7.57569 22.935 7.59582 22.9484 7.60909 22.9684C7.62245 22.9818 7.6359 22.9952 7.64258 23.0086C7.64926 23.0218 7.65594 23.042 7.65594 23.0687C7.66262 23.0955 7.6693 23.1289 7.6693 23.1623V23.4565Z" fill="#CECECF"/>
<path d="M9.04671 22.9348C9.03335 22.888 9.00663 22.8478 8.96646 22.8144C8.93307 22.7743 8.8929 22.7476 8.83946 22.7275C8.79262 22.7074 8.7325 22.7007 8.67229 22.7007H8.19751V23.9244H8.43824V23.463H8.67221C8.73241 23.463 8.79253 23.4497 8.83938 23.4296C8.8929 23.4094 8.93298 23.3827 8.96638 23.3492C9.00654 23.3158 9.03326 23.2758 9.04662 23.2289C9.06675 23.1821 9.07334 23.1287 9.07334 23.0819C9.07343 23.0284 9.06684 22.9817 9.04671 22.9348ZM8.79262 23.2023C8.75922 23.2291 8.71237 23.2491 8.65885 23.2491H8.43824V22.9148H8.65885C8.71237 22.9148 8.75913 22.9281 8.79262 22.955C8.81934 22.9884 8.83946 23.0284 8.83946 23.082C8.83946 23.1288 8.81934 23.1689 8.79262 23.2023Z" fill="#CECECF"/>
<path d="M10.1233 22.9147V22.7007H9.32092V23.9244H10.1233V23.7104H9.56166V23.4095H10.043V23.1955H9.56166V22.9147H10.1233Z" fill="#CECECF"/>
<path d="M10.9524 23.6707C10.919 23.7041 10.8721 23.7175 10.812 23.7175C10.7786 23.7175 10.7518 23.7108 10.7251 23.7041C10.6984 23.6907 10.6783 23.6774 10.6582 23.6573C10.6515 23.644 10.6382 23.6306 10.6315 23.6106C10.6248 23.5972 10.6181 23.5771 10.6115 23.5504C10.6115 23.5236 10.6048 23.4969 10.6048 23.4569C10.6048 23.4167 10.5981 23.3698 10.5981 23.3097C10.5981 23.2496 10.6048 23.2028 10.6048 23.1627C10.6048 23.1293 10.6115 23.0958 10.6115 23.0691C10.6181 23.0423 10.6248 23.0222 10.6315 23.009C10.6382 22.9956 10.6515 22.9755 10.6582 22.9688C10.6783 22.9488 10.6984 22.9287 10.7251 22.922C10.7518 22.9087 10.7786 22.902 10.812 22.902C10.8721 22.902 10.919 22.9154 10.9524 22.9488C10.9859 22.9822 11.0059 23.0223 11.0193 23.0758H11.26C11.24 22.9488 11.1864 22.8485 11.1062 22.7884C11.026 22.7214 10.9257 22.688 10.812 22.688C10.7451 22.688 10.6783 22.7013 10.6248 22.7215C10.578 22.7415 10.5245 22.775 10.4845 22.8151C10.4577 22.8485 10.4309 22.882 10.4109 22.9154C10.3975 22.9488 10.3842 22.9822 10.3775 23.0223C10.3708 23.0625 10.3641 23.1093 10.3641 23.1561V23.4703C10.3641 23.5171 10.3708 23.5572 10.3775 23.5974C10.3842 23.6375 10.3976 23.6776 10.4109 23.711C10.431 23.7378 10.4577 23.7712 10.4845 23.8046C10.5245 23.8448 10.5781 23.8782 10.6248 23.8982C10.6783 23.9251 10.7451 23.9317 10.812 23.9317C10.9257 23.9317 11.026 23.8982 11.1062 23.8381C11.1864 23.7712 11.24 23.6776 11.26 23.5439H11.0193C11.0059 23.5971 10.9859 23.6372 10.9524 23.6707Z" fill="#CECECF"/>
<path d="M12.3699 23.1556C12.3699 23.1088 12.3632 23.062 12.3565 23.0218C12.3499 22.9818 12.3364 22.9484 12.3165 22.9149C12.3031 22.8814 12.2764 22.8479 12.2496 22.8146C12.2095 22.7745 12.1626 22.741 12.1092 22.721C12.0557 22.7009 11.9955 22.6875 11.922 22.6875C11.8484 22.6875 11.7882 22.7009 11.7348 22.721C11.6813 22.741 11.6345 22.7745 11.5943 22.8146C11.561 22.848 11.5408 22.8815 11.5208 22.9149C11.5074 22.9484 11.494 22.9818 11.4874 23.0218C11.4807 23.062 11.474 23.1088 11.474 23.1556C11.474 23.2024 11.4673 23.2492 11.4673 23.3094C11.4673 23.3695 11.474 23.4231 11.474 23.4699C11.474 23.5167 11.4807 23.5568 11.4874 23.597C11.4941 23.6371 11.5074 23.6772 11.5208 23.7106C11.5408 23.7374 11.5609 23.7708 11.5943 23.8042C11.6344 23.8444 11.6813 23.8778 11.7348 23.8978C11.7882 23.9246 11.8484 23.9313 11.922 23.9313C11.9956 23.9313 12.0558 23.9246 12.1092 23.8978C12.1626 23.8778 12.2095 23.8444 12.2496 23.8042C12.2764 23.7708 12.3031 23.7374 12.3165 23.7106C12.3365 23.6772 12.3499 23.6371 12.3565 23.597C12.3632 23.5568 12.3699 23.5167 12.3699 23.4699C12.3699 23.4231 12.3766 23.3696 12.3766 23.3094C12.3766 23.2492 12.3699 23.2024 12.3699 23.1556ZM12.1292 23.4565C12.1292 23.4966 12.1225 23.5233 12.1225 23.5501C12.1158 23.5769 12.1091 23.5969 12.1024 23.6103C12.0958 23.6236 12.0891 23.637 12.0757 23.6503C12.0556 23.6705 12.0356 23.6904 12.0088 23.6971C11.9821 23.7105 11.9553 23.7171 11.9219 23.7171C11.8885 23.7171 11.8618 23.7105 11.835 23.6971C11.8083 23.6904 11.7881 23.6704 11.7681 23.6503C11.7547 23.637 11.7481 23.6236 11.7414 23.6103C11.728 23.5969 11.728 23.5768 11.7213 23.5501C11.7146 23.5233 11.7146 23.4966 11.7079 23.4565V23.1623C11.7146 23.1289 11.7146 23.0954 11.7213 23.0687C11.7279 23.0419 11.7279 23.0218 11.7414 23.0086C11.7481 22.9952 11.7547 22.9818 11.7681 22.9684C11.7881 22.9484 11.8082 22.935 11.835 22.9216C11.8618 22.9083 11.8885 22.9016 11.9219 22.9016C11.9553 22.9016 11.9821 22.9083 12.0088 22.9216C12.0356 22.935 12.0557 22.9484 12.0757 22.9684C12.0891 22.9818 12.0958 22.9952 12.1024 23.0086C12.1091 23.0218 12.1158 23.042 12.1225 23.0687C12.1225 23.0955 12.1292 23.1289 12.1292 23.1623C12.1358 23.2024 12.1358 23.2492 12.1358 23.3093C12.1358 23.3695 12.1358 23.4164 12.1292 23.4565Z" fill="#CECECF"/>
<path d="M13.3595 22.7007V23.4496L12.8714 22.7007H12.6574V23.9244H12.8981V23.1688L13.3862 23.9244H13.6001V22.7007H13.3595Z" fill="#CECECF"/>
<path d="M15.2384 23.4567C15.2251 23.4232 15.205 23.3897 15.1782 23.363C15.1649 23.3496 15.1515 23.3363 15.1382 23.3296C15.1248 23.3162 15.1114 23.3095 15.0847 23.2962C15.185 23.236 15.2385 23.1557 15.2385 23.0353C15.2385 22.9819 15.2252 22.9351 15.2118 22.895C15.1918 22.8548 15.165 22.8214 15.1316 22.7881C15.1049 22.768 15.0848 22.7546 15.0513 22.7412C15.0446 22.7346 15.0313 22.7279 15.0179 22.7212C14.9644 22.7079 14.9176 22.7012 14.8574 22.7012H14.3694V23.9249H14.8776C14.9377 23.9249 14.9912 23.9115 15.0314 23.8981C15.0782 23.878 15.1183 23.8579 15.1517 23.8245C15.1851 23.7978 15.2119 23.7576 15.2253 23.7175C15.2453 23.6775 15.2521 23.624 15.2521 23.5705C15.2518 23.5302 15.2451 23.49 15.2384 23.4567ZM14.6032 22.915H14.8372C14.8506 22.915 14.864 22.915 14.8707 22.9217C14.9108 22.9217 14.9308 22.9284 14.9576 22.9485C14.9844 22.9752 14.9977 23.0087 14.9977 23.0555C14.9977 23.0956 14.9844 23.1291 14.9576 23.1557C14.9241 23.1825 14.8908 23.1958 14.8372 23.1958H14.6032V22.915ZM14.971 23.6706C14.9443 23.6973 14.9041 23.7107 14.8574 23.7107H14.6033V23.4098H14.8574C14.9042 23.4098 14.9443 23.4232 14.971 23.45C14.9978 23.4767 15.0178 23.5102 15.0178 23.557C15.0178 23.6037 14.9977 23.6438 14.971 23.6706Z" fill="#CECECF"/>
<path d="M16.0408 22.7007H15.8536L15.4056 23.9244H15.653L15.7266 23.7037H16.1612L16.2347 23.9244H16.4822L16.0408 22.7007ZM15.7934 23.5031L15.9538 23.0618L16.101 23.5031H15.7934Z" fill="#CECECF"/>
<path d="M17.3781 22.7007V23.4496L16.89 22.7007H16.6827V23.9244H16.9168V23.1688L17.4049 23.9244H17.6189V22.7007H17.3781Z" fill="#CECECF"/>
<path d="M18.5014 23.1821L18.9026 22.7007H18.6151L18.1805 23.2289V22.7007H17.9464V23.9244H18.1805V23.5566L18.341 23.3626L18.6552 23.9243H18.936L18.5014 23.1821Z" fill="#CECECF"/>
<path d="M31.2725 15.038C31.2391 15.0715 31.1923 15.0848 31.1322 15.0848C31.0987 15.0848 31.072 15.0781 31.0453 15.0647C31.0185 15.058 30.9984 15.0379 30.9784 15.0245C30.9717 15.0112 30.9583 14.9977 30.9517 14.9778C30.945 14.9644 30.9383 14.9443 30.9316 14.9176C30.9316 14.8908 30.9249 14.8574 30.9249 14.824C30.9249 14.7839 30.9183 14.7371 30.9183 14.6769C30.9183 14.6167 30.9249 14.57 30.9249 14.5298C30.9249 14.4896 30.9316 14.4629 30.9316 14.4363C30.9383 14.4095 30.945 14.3894 30.9517 14.3761C30.9583 14.356 30.9717 14.3426 30.9784 14.3292C30.9984 14.3093 31.0185 14.2958 31.0453 14.2825C31.072 14.2758 31.0987 14.2692 31.1322 14.2692C31.1923 14.2692 31.2391 14.2825 31.2725 14.3159C31.3059 14.3493 31.3261 14.3895 31.3394 14.4429H31.5802C31.56 14.3093 31.5066 14.2157 31.4264 14.1488C31.3461 14.0887 31.2458 14.0552 31.1322 14.0552C31.0653 14.0552 30.9984 14.0685 30.9517 14.0887C30.8981 14.1087 30.8514 14.1421 30.8045 14.1822C30.7778 14.2157 30.7511 14.2491 30.7376 14.2825C30.7176 14.3093 30.7042 14.3493 30.6976 14.3894C30.6909 14.4296 30.6842 14.4697 30.6842 14.5164V14.8374C30.6842 14.8842 30.6909 14.9244 30.6976 14.9645C30.7042 15.0046 30.7176 15.0381 30.7376 15.0715C30.751 15.1049 30.7778 15.1383 30.8045 15.1717C30.8514 15.2118 30.8981 15.2453 30.9517 15.2653C30.9985 15.2854 31.0653 15.2987 31.1322 15.2987C31.2458 15.2987 31.3461 15.2653 31.4264 15.1985C31.5066 15.1383 31.56 15.038 31.5802 14.911H31.3394C31.3261 14.9644 31.3059 15.0045 31.2725 15.038Z" fill="#CECECF"/>
<path d="M32.4828 14.7575C32.5162 14.7508 32.543 14.7374 32.5698 14.7173C32.5966 14.6972 32.6233 14.6772 32.6433 14.6504C32.6634 14.6236 32.6768 14.5903 32.6902 14.5568C32.6968 14.5367 32.7035 14.51 32.7035 14.4833C32.7102 14.4699 32.7102 14.4498 32.7102 14.4365C32.7102 14.3897 32.6968 14.3361 32.6834 14.2961C32.6634 14.2493 32.6366 14.2091 32.6032 14.1757C32.5698 14.1423 32.5296 14.1155 32.4762 14.0955C32.4494 14.0821 32.4294 14.0754 32.3959 14.0687H32.3892C32.3625 14.062 32.3358 14.062 32.309 14.062H31.8343V15.2856H32.0683V14.7976H32.2422L32.4829 15.2856H32.7571L32.4828 14.7575ZM32.4227 14.5568C32.3892 14.5836 32.3492 14.6037 32.2957 14.6037H32.0683V14.2759H32.2957C32.3492 14.2759 32.3893 14.2893 32.4227 14.3227C32.4561 14.3495 32.4696 14.3897 32.4696 14.4365C32.4695 14.49 32.4561 14.5234 32.4227 14.5568Z" fill="#CECECF"/>
<path d="M33.8068 14.2759V14.062H32.9977V15.2856H33.8068V15.0717H33.2384V14.7774H33.7199V14.5635H33.2384V14.2759H33.8068Z" fill="#CECECF"/>
<path d="M34.9636 14.4565C34.9636 14.4431 34.9569 14.4297 34.9569 14.4231C34.9569 14.3896 34.9435 14.3562 34.9368 14.3294C34.9235 14.296 34.91 14.2693 34.89 14.2425C34.8499 14.1823 34.7964 14.1356 34.7362 14.1088C34.6761 14.0821 34.6092 14.062 34.5222 14.062H34.0809V15.2856H34.5222C34.6091 15.2856 34.676 15.2724 34.7362 15.2455C34.7697 15.2322 34.7964 15.2121 34.8231 15.192C34.8499 15.1719 34.87 15.1453 34.89 15.1118C34.91 15.0851 34.9234 15.0583 34.9368 15.0249C34.9435 14.998 34.9569 14.9647 34.9569 14.9313C34.9636 14.8979 34.9636 14.8577 34.9702 14.8176V14.5367C34.9636 14.5099 34.9636 14.4833 34.9636 14.4565ZM34.7295 14.8042C34.7295 14.8376 34.7228 14.8643 34.7228 14.8911C34.7161 14.9179 34.7161 14.9379 34.7095 14.9512C34.7028 14.9712 34.6893 14.9847 34.6827 14.998C34.6427 15.0515 34.5825 15.0716 34.5022 15.0716H34.3217V14.2758H34.5022C34.5825 14.2758 34.6427 14.3027 34.6827 14.3561C34.6894 14.3695 34.7028 14.3829 34.7095 14.4029C34.7161 14.4163 34.7161 14.4364 34.7228 14.4631C34.7228 14.4898 34.7295 14.5165 34.7295 14.55V14.8042Z" fill="#CECECF"/>
<path d="M35.2577 14.062V15.2856H35.4917V14.062H35.2577Z" fill="#CECECF"/>
<path d="M35.7325 14.062V14.2759H36.0535V15.2856H36.2875V14.2759H36.6085V14.062H35.7325Z" fill="#CECECF"/>
<path d="M37.8388 15.038C37.8054 15.0715 37.7585 15.0848 37.6983 15.0848C37.6649 15.0848 37.6382 15.0781 37.6114 15.0647C37.5846 15.058 37.5645 15.0379 37.5445 15.0245C37.5378 15.0112 37.5245 14.9977 37.5178 14.9778C37.5111 14.9644 37.5044 14.9443 37.4978 14.9176C37.4978 14.8908 37.4911 14.8574 37.4911 14.824C37.4844 14.7839 37.4844 14.7371 37.4844 14.6769C37.4844 14.6167 37.4844 14.57 37.4911 14.5298C37.4911 14.4896 37.4978 14.4629 37.4978 14.4363C37.5044 14.4095 37.5111 14.3894 37.5178 14.3761C37.5245 14.356 37.5378 14.3426 37.5445 14.3292C37.5645 14.3093 37.5846 14.2958 37.6114 14.2825C37.6381 14.2758 37.6648 14.2692 37.6983 14.2692C37.7585 14.2692 37.8053 14.2825 37.8388 14.3159C37.8722 14.3493 37.8923 14.3895 37.9057 14.4429H38.1464C38.1263 14.3093 38.0728 14.2157 37.9926 14.1488C37.9123 14.0887 37.812 14.0552 37.6984 14.0552C37.6315 14.0552 37.5647 14.0685 37.5112 14.0887C37.4644 14.1087 37.4109 14.1421 37.3708 14.1822C37.3374 14.2157 37.3173 14.2491 37.2972 14.2825C37.2838 14.3093 37.2705 14.3493 37.2638 14.3894C37.2571 14.4296 37.2504 14.4697 37.2504 14.5164V14.8374C37.2504 14.8842 37.2571 14.9244 37.2638 14.9645C37.2705 15.0046 37.2838 15.0381 37.2972 15.0715C37.3172 15.1049 37.3373 15.1383 37.3708 15.1717C37.4108 15.2118 37.4644 15.2453 37.5112 15.2653C37.5647 15.2854 37.6315 15.2987 37.6984 15.2987C37.8121 15.2987 37.9124 15.2653 37.9926 15.1985C38.0728 15.1383 38.1263 15.038 38.1464 14.911H37.9057C37.8923 14.9644 37.8722 15.0045 37.8388 15.038Z" fill="#CECECF"/>
<path d="M38.8952 14.062H38.708L38.26 15.2856H38.5141L38.5877 15.0717H39.0223L39.0959 15.2856H39.3433L38.8952 14.062ZM38.6546 14.871L38.8084 14.4231L38.9554 14.871H38.6546Z" fill="#CECECF"/>
<path d="M40.1857 14.7575C40.2191 14.7508 40.2458 14.7374 40.2726 14.7173C40.2994 14.6972 40.3262 14.6772 40.3462 14.6504C40.3662 14.6236 40.3796 14.5903 40.393 14.5568C40.4064 14.5233 40.4131 14.4833 40.4131 14.4365C40.4131 14.3897 40.4064 14.3361 40.3864 14.2961C40.3663 14.2493 40.3395 14.2091 40.3061 14.1757C40.2727 14.1423 40.2326 14.1155 40.1791 14.0955C40.1323 14.0754 40.0788 14.062 40.0186 14.062H39.5372V15.2856H39.7779V14.7976H39.9451L40.1858 15.2856H40.4599L40.1857 14.7575ZM40.1255 14.5568C40.0921 14.5836 40.0519 14.6037 39.9985 14.6037H39.7779V14.2759H39.9985C40.052 14.2759 40.0921 14.2893 40.1255 14.3227C40.159 14.3495 40.1724 14.3897 40.1724 14.4365C40.1724 14.49 40.159 14.5234 40.1255 14.5568Z" fill="#CECECF"/>
<path d="M41.5831 14.4231C41.5765 14.3896 41.5698 14.3562 41.5564 14.3294C41.5497 14.296 41.5297 14.2693 41.5163 14.2425C41.4695 14.1823 41.4161 14.1356 41.3558 14.1088C41.3023 14.0821 41.2288 14.062 41.1419 14.062H40.7006V15.2856H41.1419C41.2288 15.2856 41.3024 15.2724 41.3558 15.2455C41.416 15.2187 41.4695 15.1719 41.5163 15.1118C41.5297 15.0851 41.5497 15.0583 41.5564 15.0249C41.5698 14.998 41.5765 14.9647 41.5831 14.9313C41.5831 14.8979 41.5898 14.8577 41.5898 14.8176V14.5367C41.5898 14.4965 41.5831 14.4565 41.5831 14.4231ZM41.3492 14.8042C41.3492 14.8376 41.3492 14.8643 41.3425 14.8911C41.3425 14.9179 41.3358 14.9379 41.3291 14.9512C41.3224 14.9712 41.3158 14.9847 41.3023 14.998C41.2622 15.0515 41.202 15.0716 41.1218 15.0716H40.9413V14.2758H41.1218C41.202 14.2758 41.2622 14.3027 41.3023 14.3561C41.3157 14.3695 41.3224 14.3829 41.3291 14.4029C41.3358 14.4163 41.3425 14.4364 41.3425 14.4631C41.3492 14.4898 41.3492 14.5165 41.3492 14.55V14.8042Z" fill="#CECECF"/>
<path d="M41.7148 2.98151V7.69412C41.7148 7.88379 41.5597 8.03892 41.37 8.03892H35.5654C35.3758 8.03892 35.2206 7.88379 35.2206 7.69412V2.98151C35.2206 2.79185 35.3758 2.63672 35.5654 2.63672H41.37C41.5596 2.63663 41.7148 2.79185 41.7148 2.98151Z" fill="#F7D072"/>
<path opacity="0.2" d="M40.4398 3.77775L41.4495 2.76807H41.1218L40.2526 3.64398L40.1189 3.77775L40.0186 3.87136L39.3299 4.56007H37.8322L37.6984 4.4263L37.1435 3.87136L36.9228 3.64398L36.0469 2.76807H35.7192L36.5884 3.64398L36.7222 3.77775H35.3381V4.00504H36.9562L37.3841 4.43966L37.4977 4.56007V4.82743H35.338V5.06148H37.4977V5.88388H35.338V6.11116H37.4977V6.38529H37.5111L37.0898 6.79996L36.9561 6.93373H35.338V7.16778H36.7221L35.8529 8.03702H36.1805L37.0498 7.16778L37.8321 6.38556H39.3298L40.9881 8.03711H41.309L40.4398 7.16787H41.7168V6.93382H40.2124L39.6642 6.38556V6.11143H41.7169V5.88414H39.6642V5.06175H41.7169V4.8277H39.6642V4.56033L40.2124 4.0053H41.7168V3.77802H40.4398V3.77775ZM39.4369 6.15142H37.7251V4.78744H39.4369V6.15142Z" fill="white"/>
<path d="M37.7184 4.42676L37.9458 4.65404H38.9889L39.0825 4.56053L39.2163 4.42676H37.7184ZM37.7184 4.42676L37.9458 4.65404H38.9889L39.0825 4.56053L39.2163 4.42676H37.7184ZM37.7184 4.42676L37.9458 4.65404H38.9889L39.0825 4.56053L39.2163 4.42676H37.7184ZM37.7184 4.42676L37.9458 4.65404H38.9889L39.0825 4.56053L39.2163 4.42676H37.7184ZM39.1226 6.15187L38.9889 6.01819H37.9458L37.8188 6.15187H37.8121L37.7185 6.25216H39.2163L39.1226 6.15187ZM37.7184 4.42676L37.9458 4.65404H38.9889L39.0825 4.56053L39.2163 4.42676H37.7184ZM37.3841 4.42676V6.25216H39.5505V4.42676H37.3841ZM39.3231 6.01819H37.6114V4.65413H39.3231V6.01819ZM37.7184 4.42676L37.9458 4.65404H38.9889L39.0825 4.56053L39.2163 4.42676H37.7184ZM37.7184 4.42676L37.9458 4.65404H38.9889L39.0825 4.56053L39.2163 4.42676H37.7184ZM37.7184 4.42676L37.9458 4.65404H38.9889L39.0825 4.56053L39.2163 4.42676H37.7184ZM37.7184 4.42676L37.9458 4.65404H38.9889L39.0825 4.56053L39.2163 4.42676H37.7184ZM37.7184 4.42676L37.9458 4.65404H38.9889L39.0825 4.56053L39.2163 4.42676H37.7184ZM37.7184 4.42676L37.9458 4.65404H38.9889L39.0825 4.56053L39.2163 4.42676H37.7184Z" fill="#717070"/>
<path d="M36.9346 3.64209L37.1645 3.87201H35.2206V3.64209H36.9346Z" fill="#717070"/>
<path d="M41.7148 3.64209V3.87201H39.7709L40.0007 3.64209H41.7148Z" fill="#717070"/>
<path d="M37.6128 4.6958H35.2206V4.92572H37.6128V4.6958Z" fill="#717070"/>
<path d="M41.7148 4.6958H39.3226V4.92572H41.7148V4.6958Z" fill="#717070"/>
<path d="M37.6128 5.74951H35.2206V5.97943H37.6128V5.74951Z" fill="#717070"/>
<path d="M41.7148 5.74951H39.3226V5.97943H41.7148V5.74951Z" fill="#717070"/>
<path d="M37.1648 6.80273L36.9349 7.03266H35.2206V6.80273H37.1648Z" fill="#717070"/>
<path d="M41.7149 6.80273V7.03266H40.0005L39.7706 6.80273H41.7149Z" fill="#717070"/>
<path d="M37.9478 6.02002L35.9291 8.03869H35.6042L37.6229 6.02002H37.9478Z" fill="#717070"/>
<path d="M41.3315 2.63623L39.3128 4.6549H38.9879L41.0065 2.63623H41.3315Z" fill="#717070"/>
<path d="M37.9476 4.6549H37.6226L35.6039 2.63623H35.9289L37.9476 4.6549Z" fill="#717070"/>
<path d="M41.3312 8.03869H41.0062L39.2174 6.24994L39.1217 6.15423L38.9875 6.02002H39.3125L39.4375 6.145L39.5424 6.24994L39.6674 6.37492L40.0955 6.80304L40.2297 6.93725L40.3254 7.03296L40.4597 7.16717L41.3312 8.03869Z" fill="#717070"/>
<path d="M6.945 4.69547C6.945 3.976 7.24172 3.32613 7.71896 2.86049C7.25683 2.40961 6.62543 2.13135 5.92881 2.13135C4.51262 2.13135 3.36469 3.27938 3.36469 4.69547C3.36469 6.11165 4.51271 7.25959 5.92881 7.25959C6.62552 7.25959 7.25692 6.98133 7.71896 6.53045C7.24172 6.06489 6.945 5.41494 6.945 4.69547Z" fill="#DC3B39"/>
<path d="M9.50915 2.13135C8.81244 2.13135 8.18112 2.40961 7.71899 2.86049C8.19624 3.32613 8.49296 3.976 8.49296 4.69547C8.49296 5.41494 8.19624 6.06481 7.71899 6.53045C8.18112 6.98133 8.81253 7.25959 9.50915 7.25959C10.9253 7.25959 12.0733 6.11156 12.0733 4.69547C12.0733 3.27938 10.9252 2.13135 9.50915 2.13135Z" fill="#E6AB2D"/>
<path d="M8.49294 4.69533C8.49294 3.97586 8.19622 3.326 7.71897 2.86035C7.24173 3.326 6.94501 3.97586 6.94501 4.69533C6.94501 5.4148 7.24173 6.06467 7.71897 6.53031C8.19622 6.06476 8.49294 5.4148 8.49294 4.69533Z" fill="#D67261"/>
<path d="M8.49284 4.69541C8.49284 4.64127 8.49065 4.58766 8.48731 4.53431L7.31766 3.36475C7.23197 3.50546 7.15928 3.65496 7.10162 3.81185L8.44987 5.16009C8.47755 5.00927 8.49284 4.85423 8.49284 4.69541Z" fill="#E6AB2D"/>
<path d="M6.97105 4.33252C6.95426 4.45108 6.94495 4.57211 6.94495 4.69524C6.94495 4.79368 6.95101 4.89071 6.96182 4.98625L8.0739 6.09833C8.16337 5.96201 8.2401 5.81673 8.30259 5.66397L6.97105 4.33252Z" fill="#E6AB2D"/>
<path opacity="0.2" d="M45 16.3555H0V16.9172H45V16.3555Z" fill="#040000"/>
<path opacity="0.2" d="M45 1.43095V29.1398C45 29.9288 44.3514 30.5773 43.5624 30.5773H7.21472L14.3693 23.4228L14.6032 23.1888L14.8707 22.9214L15.0512 22.7409L18.7756 19.0165L18.9695 18.8226V18.8159L19.0965 18.6955L19.1098 18.6821L19.6782 18.1071L19.8588 17.9333L20.8751 16.9169L21.4368 16.3552L27.4479 10.3441L29.3803 8.41184L37.6716 0.113818L37.7853 0H43.5624C44.3514 0 45 0.641865 45 1.43095Z" fill="#040000"/>
<defs>
<linearGradient id="paint0_linear_240_1537" x1="22.5" y1="0.113743" x2="22.5" y2="30.6911" gradientUnits="userSpaceOnUse">
<stop stop-color="#44484A"/>
<stop offset="1" stop-color="#193741"/>
</linearGradient>
</defs>
</svg>
