<svg width="75" height="19" viewBox="0 0 75 19" fill="none" xmlns="http://www.w3.org/2000/svg">
<path d="M13.6837 1.43015C12.8056 0.429245 11.2182 0.000133514 9.18752 0.000133514H3.29382C3.09279 2.67029e-05 2.89833 0.0716686 2.74543 0.202168C2.59252 0.332666 2.49121 0.513453 2.45973 0.711994L0.00676992 16.2769C-0.00460408 16.3491 -0.000189429 16.423 0.01971 16.4933C0.0396094 16.5636 0.0745205 16.6288 0.122038 16.6844C0.169555 16.7399 0.228549 16.7845 0.294956 16.815C0.361362 16.8456 0.433602 16.8614 0.506699 16.8613H4.14522L5.05904 11.0652L5.03071 11.2467C5.0616 11.0486 5.16223 10.868 5.31448 10.7374C5.46673 10.6069 5.66059 10.5351 5.86113 10.5348H7.59016C10.9868 10.5348 13.6465 9.15518 14.4234 5.16414C14.4465 5.04611 14.4664 4.93123 14.4837 4.81897C14.7145 3.34384 14.4822 2.33978 13.6843 1.43068" fill="#003087"/>
<path d="M58.2272 8.83657C58.0048 10.297 56.8895 10.297 55.811 10.297H55.1972L55.6279 7.57022C55.6541 7.4055 55.7958 7.28432 55.9626 7.28432H56.2443C56.9787 7.28432 57.6722 7.28433 58.03 7.70242C58.2435 7.95265 58.308 8.32405 58.2272 8.83657ZM57.7577 5.02599H53.689C53.5543 5.02606 53.424 5.07415 53.3215 5.16164C53.219 5.24913 53.151 5.37029 53.1298 5.50336L51.4858 15.9358C51.4782 15.9841 51.4812 16.0336 51.4945 16.0807C51.5079 16.1278 51.5312 16.1714 51.563 16.2087C51.5948 16.2459 51.6343 16.2758 51.6787 16.2963C51.7231 16.3169 51.7715 16.3275 51.8205 16.3276H53.9083C54.1029 16.3276 54.2687 16.186 54.2991 15.994L54.766 13.0353C54.809 12.761 55.0461 12.558 55.3242 12.558H56.6115C59.2921 12.558 60.8386 11.2617 61.2425 8.69074C61.4245 7.56708 61.2499 6.68368 60.7237 6.06519C60.1451 5.38533 59.1195 5.02547 57.7582 5.02547" fill="#009CDE"/>
<path d="M29.2072 8.8367C28.9847 10.2971 27.8695 10.2971 26.7904 10.2971H26.1766L26.6073 7.57036C26.6335 7.40564 26.7752 7.28446 26.942 7.28446H27.2237C27.9581 7.28446 28.6516 7.28446 29.0094 7.70255C29.2234 7.95278 29.2879 8.32419 29.2072 8.8367ZM28.7376 5.02612H24.669C24.3909 5.02612 24.1538 5.22861 24.1103 5.5035L22.4657 15.9359C22.4581 15.9843 22.461 16.0337 22.4743 16.0809C22.4876 16.128 22.5109 16.1717 22.5427 16.209C22.5746 16.2462 22.6141 16.2761 22.6585 16.2966C22.703 16.3171 22.7514 16.3278 22.8004 16.3278H24.7435C25.0215 16.3278 25.2581 16.1253 25.3016 15.8504L25.7459 13.036C25.789 12.7611 26.0261 12.5586 26.3041 12.5586H27.5914C30.2721 12.5586 31.8185 11.2619 32.2225 8.69087C32.4045 7.56721 32.2298 6.68381 31.7036 6.06532C31.125 5.38546 30.0995 5.0256 28.7382 5.0256M38.1838 12.5822C37.995 13.6954 37.1121 14.4429 35.9848 14.4429C35.4198 14.4429 34.9671 14.2609 34.6765 13.9168C34.3879 13.5758 34.2799 13.0895 34.3712 12.5487C34.5464 11.4449 35.4445 10.6738 36.5545 10.6738C37.1079 10.6738 37.5564 10.8574 37.8533 11.2047C38.1518 11.5546 38.2693 12.0435 38.1838 12.5822ZM40.8991 8.78949H38.9508C38.8698 8.7894 38.7914 8.81827 38.7299 8.87089C38.6683 8.92351 38.6276 8.99642 38.615 9.07644L38.5301 9.62096L38.3937 9.42372C37.9719 8.81153 37.0313 8.60641 36.0923 8.60641C33.94 8.60641 32.1013 10.2379 31.7435 12.5251C31.5573 13.6671 31.8217 14.7577 32.469 15.5189C33.0634 16.2181 33.9116 16.5093 34.9225 16.5093C36.6578 16.5093 37.6199 15.3951 37.6199 15.3951L37.5328 15.9364C37.5252 15.9849 37.5281 16.0344 37.5414 16.0815C37.5548 16.1287 37.5782 16.1724 37.61 16.2097C37.6419 16.247 37.6815 16.2769 37.726 16.2973C37.7706 16.3178 37.819 16.3284 37.868 16.3283H39.6222C39.9003 16.3283 40.1374 16.1263 40.1809 15.8509L41.2343 9.18188C41.2419 9.13343 41.2389 9.08391 41.2255 9.03673C41.2121 8.98955 41.1886 8.94584 41.1567 8.9086C41.1248 8.87136 41.0852 8.84147 41.0406 8.821C40.9961 8.80053 40.9476 8.78996 40.8986 8.79002" fill="#003087"/>
<path d="M67.2039 12.5822C67.015 13.6954 66.1321 14.4429 65.0048 14.4429C64.4398 14.4429 63.9871 14.2609 63.6965 13.9168C63.408 13.5758 63.2999 13.0895 63.3912 12.5487C63.5664 11.4449 64.464 10.6738 65.5745 10.6738C66.1279 10.6738 66.5765 10.8574 66.8734 11.2047C67.1719 11.5546 67.2894 12.0435 67.2039 12.5822ZM69.9191 8.78949H67.9708C67.8898 8.7894 67.8114 8.81826 67.7499 8.87089C67.6883 8.92351 67.6476 8.99642 67.6351 9.07644L67.5501 9.62096L67.4137 9.42371C66.9919 8.81152 66.0513 8.60641 65.1123 8.60641C62.9605 8.60641 61.1218 10.2379 60.7635 12.5251C60.5773 13.6671 60.8422 14.7577 61.4896 15.5189C62.0839 16.2181 62.9322 16.5093 63.943 16.5093C65.6789 16.5093 66.641 15.3951 66.641 15.3951L66.5539 15.9364C66.5461 15.9848 66.5488 16.0343 66.562 16.0815C66.5752 16.1286 66.5985 16.1724 66.6303 16.2097C66.6621 16.2469 66.7016 16.2769 66.7461 16.2974C66.7906 16.3178 66.8391 16.3284 66.8881 16.3283H68.6417C68.9198 16.3283 69.1569 16.1263 69.201 15.8509L70.2543 9.18188C70.2619 9.13343 70.2589 9.08391 70.2455 9.03673C70.2321 8.98955 70.2086 8.94584 70.1767 8.9086C70.1448 8.87135 70.1052 8.84147 70.0607 8.821C70.0161 8.80053 69.9676 8.78996 69.9186 8.79002" fill="#009CDE"/>
<path d="M51.276 8.79H49.3172C49.1299 8.79 48.9552 8.88285 48.8503 9.03813L46.1487 13.0166L45.0035 9.19341C44.9686 9.0768 44.897 8.97454 44.7994 8.90179C44.7018 8.82903 44.5834 8.78965 44.4616 8.78948H42.5369C42.483 8.7895 42.4298 8.8024 42.3818 8.8271C42.3338 8.8518 42.2924 8.88758 42.261 8.93149C42.2296 8.97539 42.2091 9.02615 42.2013 9.07955C42.1935 9.13294 42.1985 9.18744 42.2159 9.23852L44.3719 15.5682L42.3439 18.4298C42.308 18.4806 42.2868 18.5402 42.2826 18.6022C42.2784 18.6643 42.2912 18.7263 42.3198 18.7815C42.3484 18.8367 42.3916 18.883 42.4447 18.9153C42.4977 18.9476 42.5587 18.9648 42.6209 18.9648H44.5776C44.7622 18.9648 44.9359 18.8741 45.0418 18.722L51.554 9.32246C51.5894 9.27165 51.6101 9.21212 51.6141 9.15035C51.618 9.08857 51.6049 9.0269 51.5763 8.97203C51.5476 8.91716 51.5045 8.87118 51.4515 8.83909C51.3986 8.807 51.3379 8.79003 51.276 8.79Z" fill="#003087"/>
<path d="M72.2154 5.3129L70.5452 15.9363C70.5376 15.9847 70.5406 16.0341 70.5539 16.0813C70.5673 16.1284 70.5907 16.1721 70.6226 16.2093C70.6544 16.2466 70.694 16.2765 70.7385 16.297C70.783 16.3175 70.8314 16.3281 70.8804 16.3281H72.5596C72.8376 16.3281 73.0747 16.1256 73.1182 15.8508L74.7649 5.41781C74.7726 5.36939 74.7696 5.31988 74.7563 5.2727C74.743 5.22553 74.7196 5.1818 74.6877 5.14455C74.6559 5.10729 74.6163 5.0774 74.5717 5.05692C74.5272 5.03645 74.4787 5.02588 74.4297 5.02595H72.5506C72.4698 5.02575 72.3915 5.05452 72.33 5.10707C72.2685 5.15961 72.2278 5.23297 72.2154 5.3129Z" fill="#009CDE"/>
<path d="M13.6837 1.43015C12.8056 0.429245 11.2182 0.000133514 9.18752 0.000133514H3.29382C3.09279 2.67029e-05 2.89833 0.0716686 2.74543 0.202168C2.59252 0.332666 2.49121 0.513453 2.45973 0.711994L0.00676992 16.2769C-0.00460408 16.3491 -0.000189429 16.423 0.01971 16.4933C0.0396094 16.5636 0.0745205 16.6288 0.122038 16.6844C0.169555 16.7399 0.228549 16.7845 0.294956 16.815C0.361362 16.8456 0.433602 16.8614 0.506699 16.8613H4.14522L5.05904 11.0652L5.03071 11.2467C5.0616 11.0486 5.16223 10.868 5.31448 10.7374C5.46673 10.6069 5.66059 10.5351 5.86113 10.5348H7.59016C10.9868 10.5348 13.6465 9.15518 14.4234 5.16414C14.4465 5.04611 14.4664 4.93123 14.4837 4.81897C14.7145 3.34384 14.4822 2.33978 13.6843 1.43068" fill="#003087"/>
<path d="M6.04054 4.83841C6.06811 4.66493 6.15661 4.50696 6.29015 4.39284C6.42369 4.27872 6.59353 4.21592 6.76919 4.21573H11.3897C11.9369 4.21573 12.4473 4.2514 12.9136 4.32589C13.1686 4.36691 13.4209 4.42332 13.669 4.49481C13.9509 4.57404 14.2236 4.68271 14.4827 4.819C14.7145 3.34335 14.4816 2.33982 13.6837 1.43019C12.8051 0.429806 11.2182 0.000694275 9.18752 0.000694275H3.29329C3.09245 0.000837326 2.89824 0.0725937 2.74555 0.20307C2.59286 0.333546 2.4917 0.514194 2.46025 0.712557L0.00624246 16.2759C-0.00520852 16.3481 -0.000869298 16.422 0.0189614 16.4923C0.0387921 16.5627 0.0736426 16.6279 0.121111 16.6835C0.16858 16.7391 0.227539 16.7837 0.293924 16.8144C0.360309 16.845 0.432542 16.8608 0.505647 16.8608H4.14469L5.05852 11.0642L6.04054 4.83841Z" fill="#003087"/>
<path d="M14.4831 4.81837C14.4651 4.93379 14.445 5.04887 14.4228 5.16355C13.6459 9.15406 10.9862 10.5342 7.58952 10.5342H5.85997C5.65946 10.5344 5.46562 10.6062 5.31343 10.7368C5.16124 10.8673 5.06074 11.048 5.03008 11.2461L4.14458 16.8602L3.89278 18.4528C3.88277 18.5161 3.88658 18.5807 3.90397 18.6423C3.92135 18.7039 3.95189 18.7611 3.99348 18.8097C4.03507 18.8584 4.08671 18.8975 4.14486 18.9242C4.203 18.951 4.26626 18.9649 4.33028 18.9648H7.39753C7.76054 18.9648 8.069 18.7005 8.12618 18.3422L8.15608 18.1858L8.73417 14.5221L8.77089 14.3196C8.79837 14.146 8.88692 13.9879 9.02059 13.8738C9.15426 13.7596 9.32428 13.6969 9.50006 13.697H9.95907C12.9303 13.697 15.2569 12.4904 15.9367 8.99879C16.22 7.54044 16.0731 6.32183 15.3229 5.46624C15.0848 5.20097 14.8001 4.98142 14.4831 4.81837Z" fill="#009CDE"/>
<path d="M13.6695 4.49469C13.5509 4.45955 13.4287 4.42807 13.3028 4.40027C13.1769 4.37246 13.0468 4.34781 12.9135 4.32683C12.4467 4.25076 11.9368 4.21509 11.3891 4.21509H6.76909C6.59323 4.21487 6.42311 4.27759 6.28947 4.39189C6.15583 4.50619 6.06749 4.66453 6.04044 4.83829L5.05842 11.0651L5.03009 11.2461C5.06075 11.0479 5.16125 10.8673 5.31344 10.7367C5.46563 10.6062 5.65948 10.5344 5.85998 10.5342H7.58954C10.9862 10.5342 13.6459 9.15457 14.4228 5.16354C14.4459 5.0455 14.4653 4.93115 14.4831 4.81836C14.2779 4.711 14.0642 4.62082 13.8442 4.54872C13.787 4.52984 13.7287 4.51253 13.6695 4.49469Z" fill="#012169"/>
</svg>
